<svg xmlns="http://www.w3.org/2000/svg" width="1957.266" height="1183.444"><path data-name="Trazado 3712" d="M1788.266 61v1h1v-1zm25-6a1 1 0 10-1 1 .979.979 0 001-1zm18-6l-1-1-1 1 1 1zm-88-1l1 1 1-1c0-1 0-1-1-2l-1 1zm-80-26v-1h-1v1h1zm14 2v-1h-3v1a3.674 3.674 0 013 1zm179 21c0-1 0-2-1-2h-3c0 1 0 2 1 2zm19-3c9 1 9 1 10-2-3 0-6 1-10 2zm-192-25c3 1 4 0 4-2 0-1 0-3-1-4s0-3-2-4c-1 3-1 6-2 10zm74 553a31.71 31.71 0 00-6-5c-2 3 0 6 1 8 0 5-1 7-6 8a66.02 66.02 0 01-14 1c-3 0-5 2-5 6a34.9 34.9 0 009 6c5 2 11 4 16 6 3 1 6 3 6 8-1 1-2 1-3 2-5 2-8 6-6 12 1 2 0 5-1 8-1 4-4 6-8 7s-9 0-13 3l2 2c8 3 15 5 23 8 5 2 10 3 14 8 3 3 9 5 13 7l48 18c7 3 13 6 19 9 7 3 13 8 16 15 2 3 4 4 7 4 1 0 2 1 3 1-1 3-3 6-4 9 1 2 3 5 4 7-1 1-2 3-3 4-9 4-17 10-26 13-1 0-1 1-2 1 0 7 3 8 8 6 3-2 5-3 8-5 3 1 5 3 9 5a20.454 20.454 0 01-10 7c-7 3-10 9-12 16a4.406 4.406 0 004 6c4 0 9 0 13-1a57.163 57.163 0 007 8c0 4-2 6-4 9-3 3-7 7-7 11-6 4-12 6-17 10-3 2-4 5-2 9 3 5 7 9 10 15-2 3-3 5-5 7 0 3 1 6 1 9-1 6-2 12-9 15a87.941 87.941 0 00-10 6c0 5 0 5-3 11a43.494 43.494 0 016 7c-2 1-3 2-4 1-4-1-6 1-8 5a20.92 20.92 0 016 4c0 1 0 2-1 2-1 1-3 2-4 3-10 4-19 8-29 13-1 0-2 1-3 2 6 2 6 2 10 1 3 0 5-1 8-1s6-2 9 2c-2 5-4 9-9 11-2 1-4 1-5 3-6 4-13 6-19 8-2 1-5 2-7 3 5 1 10 5 15 4 1 0 3 1 3 2 4 4 8 4 13 4 3 0 5-1 8-1 2 0 4 1 7 1-6 5-9 11-16 11-1 3-2 6-2 9-6 6-14 6-22 9-3 3-5 7-8 11 1 4 4 4 7 4a52.833 52.833 0 0025 0c3-1 7-2 10 0-1 2-1 5-2 7s-2 4-4 4a12.722 12.722 0 00-7 9c-1 4-1 4 1 12-5 5-11 7-18 9l-39 9c-5 1-7 5-10 8a21.774 21.774 0 00-5 8 48.752 48.752 0 013 7c-6 2-11 3-16 5 0 2 1 3 2 3 5 1 9 2 14 3a10.873 10.873 0 011 5 21.859 21.859 0 013 5c-4 3-7 6-8 11-1 3-4 6-6 9a11.355 11.355 0 00-3 8c1 6 0 8-5 10-4 1-7 3-11 5a58.223 58.223 0 00-19-3c-6 0-10 1-13 6l-3 3c-1 0-3-1-5-1a21.813 21.813 0 01-5 4c-2 1-5 1-8 2-11 1-22 3-33 4-19 2-37 3-56 5l-39 3c-5 0-9 1-14 1-17 0-34 2-51 1s-34 1-51 2c-7 0-14 1-21 1-16 0-33 1-49 1s-33 1-49 1c-17 1-33 2-50 2-25 1-50 2-74 2-41 1-81 3-122 4-27 1-54 0-80 0h-73c-25 0-50-1-74-2l-120-3c-23-1-47-2-70-3-31-2-62-3-93-5-23-1-46-2-69-4-17-1-33-3-50-5-11-1-11-1-17-10-10-4-14-4-17-17-2 0-4-1-7-1-2 0-5-1-7-1-3-1-6-3-6-5s2-5 5-5c2-1 4-1 9-1-4-2-6-2-8-4 11-1 20-2 30-3a3.992 3.992 0 004-2c-11-1-22-1-32-1s-20-2-29-3c-4 0-7-1-9-5-1-2-3-2-5-3-1-1-4-1-4-2-3-5-8-5-12-5h-12c-2 0-4 0-5-1-7-5-16-4-24-4h-10c-2-6-5-9-11-11-1 0-3-1-3-2-2-3-4-3-7-3-6 0-12 1-17-2h-2c-9 3-18 0-27 1a27.686 27.686 0 01-9-1c-10-4-21-9-28-17-8-8-14-17-20-27a5.2 5.2 0 01-2-4c-2-8-7-15-11-22a56.781 56.781 0 01-7-22c-2-13-6-24-14-34-2-7-8-10-13-13-2-1-4-3-7-5s-6-5-9-7a23.609 23.609 0 01-9-8c-1-1-2-3-3-4-4-3-6-7-7-12-1-6-3-10-10-11-2 0-4-3-6-4s-4-1-7-1c2-5 7-4 10-7 0-1 1-1 1-2 1-5 4-9 9-10 4-1 5-4 5-8v-3c1-8-1-14-8-18-1 0-1-1-1-2 0-2 2-2 4-2 5 0 9 0 14-3 2-2 6-1 9-2 7 0 14 0 22-2-2-1-4-3-6-3a122.523 122.523 0 00-19-2 92.232 92.232 0 01-36-7c2-6 5-12 12-15a56.377 56.377 0 01-4-12c-1-1-3-1-4-1a19.906 19.906 0 01-12-8 90.16 90.16 0 00-10-9 21.813 21.813 0 004-5c2-5 5-6 9-6h5a11.355 11.355 0 008-3 12.839 12.839 0 0110-4c3 0 7-1 10-1 4-1 6-2 6-7v-7c0-3 0-5 2-8 3-5 3-6-1-9l-2-2v-1c2-2 5-2 8-2 19 1 39 1 58 1 6 0 12 0 17-1 2 0 4-1 7-2-2-1-3-3-4-3h-20c-6 0-12 1-17-4-1-1-3-1-5-1-15-1-30-3-45-4h-6c0-1-1-1-1-2 0-10 4-16 18-16 4 0 9 1 13 0 1-4-1-6-4-7s-5-1-8-2c-3 0-7 0-10-1a8.236 8.236 0 01-8-5c3-5 4-11 8-16 3-3 2-3 1-11-2-1-3-2-5-2-4-1-8 0-11-4-5-2-10-3-15-5-3-1-7-1-10-1-3-4-2-7 1-11a.979.979 0 011-1c5-5 5-6 0-11-2-2-4-4-3-8 1-1 2-1 4-2 4-1 5-4 6-7 3-12 3-13-7-20-4-3-5-6-5-10 0-5 0-10-4-14-1-1-1-3-1-5-1-4-2-9-3-13a12.683 12.683 0 00-6-1c-1 0-3-1-4-1-2-1-4-3-3-5a7.581 7.581 0 014-2c2 0 5 1 7 1 6-4 13-8 20-12 1-1 3-2 3-3 1-5 5-7 9-9s8-5 11-7 6-5 7-9a225.031 225.031 0 01-24-8c1-4 1-7 2-10-3-5-9-4-13-6-1-2-3-5-4-7 2-3 7-3 7-8-2-1-4-3-7-5 6-3 11 0 16 0h16c5 0 11 1 16 1s11 2 16-1c-1-3-3-3-5-3-13-2-25-4-38-6-12-2-23-4-35-6-1 0-2-1-3-1l3-9c4-2 8-5 12-7 1 0 2-1 3 0 10 2 20-1 29 0 4 0 9 0 13 1 8 1 16 1 24-2-1-4-5-4-8-5-11-1-22-3-33-4l-30-3c-7-1-7-1-14-6-2-7 0-15 1-22 0-1 1-2 1-3 1-2 3-3 5-5h33c1-2 2-4 2-6 23-4 47-2 70-3h9c0-2 1-3 1-4 2-7 1-13-7-15a3.1 3.1 0 00-1-2c5-3 10 1 14-1 4-1 10-1 13-5a9.016 9.016 0 00-6-6c-6-3-13-5-19-10-1-1-3 0-4-1a3.491 3.491 0 01-2-1c0-2 1-4 3-4s5 0 7 1c4 1 7 2 11 0 0-3-2-3-4-3-5-1-10-2-15-7 1-3 2-5 2-7 0-1-1-1-1-2-3-2-7-3-10-5a21.813 21.813 0 01-5-4c1-6 8-6 10-10a13.8 13.8 0 01-4-3c-3-1-5-3-4-6 0-3-2-5-4-7s-4-5-6-7c-5-4-5-8-2-13 1-1 1-3 1-4 3-2 7-3 10-5a19.3 19.3 0 0110-3h24c1-1 2-2 2-3 3-4 9-3 10-9 1-4 5-8 9-12a20.92 20.92 0 01-6-4c1-2 1-4 2-7-4-3-4-7-6-11s-4-7-6-11c5-4 10-7 15-8 2 0 4 0 5-1 4-5 9-4 14-5 12-2 24-1 36-2l51-3a22.018 22.018 0 008-1c3-1 5-3 5-6 0-5 0-10-4-13l-3-3c1-3 2-2 3-2 4 1 7 1 11 2 12 1 23 1 35 1h4c1-3-2-5-4-5-4-2-8-3-13-4-12-3-23-5-35-7-2 0-4-1-6-1-1-2-3-5-4-7 4-3 7-4 12-3 8 1 17 2 25 3 4 1 7 0 10-4a10.873 10.873 0 00-5-1c-15-3-29-5-44-8-2 0-4-1-6-1-5-1-5-4-2-7a5.5 5.5 0 003-5c1-2 2-3 3-5-5-6-12-4-19-9 4-1 7-1 10-2 8-2 15 0 23-3 3-1 7 0 10 1 9 1 19 2 28 0a6.375 6.375 0 016 0c7 1 13 2 20 2a147.687 147.687 0 0021 1c11 0 22-2 33-2 2 0 4-1 6-1 16 0 31-1 47-1a194.189 194.189 0 0024-2c18-2 35-3 53-5 23-2 46-5 69-7s46-5 69-6c51-2 101-7 151-10 37-2 75-4 112-5 40-1 80-2 120-2h164c19 0 39 1 58 1 14 0 29-1 43 0 27 2 54 0 81 1 13 1 25 0 38 0h105c23 0 47 0 70 1 14 0 28 1 41 1 19 0 38 4 58 4 4 0 7 1 11 2 1 2-1 2-2 3l-3 3c-3 1-5 3-5 7a3.491 3.491 0 01-1 2c-4 1-3 6-6 8 3 0 5-1 8-1l3 9c4 0 7-1 11-1 1 4 6 7 2 12v2c0-1 0-1-1-2 4 0 7 0 11-2a2.4 2.4 0 014 2 2.4 2.4 0 004 2c3-2 5-4 8-6 4 1 7 3 7 8 0 2 2 3 3 6 5-4 10-7 17-4-2 1-3 2-5 3a7.581 7.581 0 012 4c6 1 11-3 16-5a54.225 54.225 0 016 11v-9c2-2 3-1 4 0a57.361 57.361 0 004 7c6-1 12-3 16-8 1-1 2-2 3-2 2-1 3-1 5-2a13.8 13.8 0 014-3c3 4 6 7 11 6v-5c3-1 5-3 8-4-2-3-4-6-4-10h2c5 6 11 10 20 10 3 0 5 1 9 2a21.774 21.774 0 005-8c3 1 5 2 6 2 4-3 8-6 7-11 0-1 2-3 4-6 0 5 1 8 1 11 4-2 8-5 13-7v-4l1-1c5 0 10-2 14 1 2 1 4 3 4 4 1 6 5 8 10 9 1 0 2 1 4 2 0 2-1 5-1 7 3 5 8 1 12 4a18.839 18.839 0 012 8c-2 0-4 1-6 1a2 2 0 000 4c2 1 3 1 6 1-1 2-1 3-2 5 1 3 4 1 7 3a3.491 3.491 0 011 2v8c-3 3-7 4-10 5-10 2-21 5-31 7-3 1-6 1-9 2-1 0-3 1-3 2-1 1-1 3-1 5 7 3 15 0 21 1 7 1 14-2 22-2-2 2-3 4-4 4-7 3-11 7-14 14-14 4-29 6-43 11a5.988 5.988 0 008 3c9-1 19-2 28-3 4-1 8 0 12 0-1 4-4 5-6 6-4 3-7 6-9 11-2 7-6 13-10 19l-3 3c-2 1-4 2-6 2-16 4-31 7-47 10-13 2-26 3-38 5-17 3-33 5-50 8-3 1-7 1-9 3 0 3 2 2 3 2h4c3 0 6 2 8 4 3 4 4 8 0 11-5 4-6 9-7 15-8 6-18 11-25 19l9 6c0 5-5 6-7 10 1 2 2 3 2 5a9.015 9.015 0 001 5c2 5 0 9-5 12-1 1-3 1-3 2-1 5-5 7-8 9-9 8-10 17-8 28 14 7 28 13 42 19 3 1 6 2 8 4 10 5 12 7 18 19 1 2-4 2-3 5 1 4-1 7-4 8a35.521 35.521 0 01-9 4c-2 1-4 1-7 2a55.469 55.469 0 018 6c-1 4-5 5-7 7s-4 5-6 7-4 5-7 8l12 3a67.262 67.262 0 0111 7c-1 4-2 8-4 11-1 3-3 6-5 7-5 3-7 9-11 13a7.638 7.638 0 00-2 5v13c3 4 7 8 14 9 5 1 7 4 7 9 1 3 0 5-3 7a13.8 13.8 0 01-4 3c2 3 3 5 5 7-3 1-5 2-8 3-2 1-5 2-7 4-1 3-3 5-4 9 3 2 8 3 8 9 0 4 0 7-4 8-3 1-6 1-8 4v2c2 1 4 3 6 4a12.05 12.05 0 015 5c2 3 2 6 0 8 1 2-2 4 2 6-1-3-1-4-2-6 1 1 2 1 4 2a5.225 5.225 0 01-1 9c-3 1-6 3-9 4z" fill="#35343d"/></svg>