<svg xmlns="http://www.w3.org/2000/svg" width="2571.414" height="1390.25"><path data-name="Trazado 3716" d="M82.414 934.25l-2 1 2 1zm28-246v-2l-2 1 1 1zm2183 405c0-1 0-1-1-2-1 0-2 0-2 1a3.1 3.1 0 001 2c1 0 1 0 2-1zm-2126-290l-1 1h2zm-32 13v2l2-1-1-1zm1039-773c-1 0-1-1-2-1 0 1-1 1-1 2a3.491 3.491 0 002 1c0-1 1-1 1-2zm-942 681c1 0 2 0 2-1a3.1 3.1 0 00-1-2c-1 0-2 0-2 1a3.1 3.1 0 001 2zm6 298c-1-1-2-1-4-2a3.491 3.491 0 01-1 2c1 1 2 1 4 2 0-1 1-1 1-2zm-36-255c1 1 2 1 4 2a3.491 3.491 0 011-2c-1-1-2-1-4-2 0 1-1 1-1 2zm-5-64c-5-4-8-2-11 2 4 3 8 3 11-2zm-98 140c-1 2-2 4-2 5 1 1 3 2 4 1a21.859 21.859 0 003-5c-1-1-3-1-5-2zm2271-4c-4-3-6-6-8-6s-6 2-7 5c-2 4 2 9 6 8 3-1 5-3 9-6zm-257 414c9-3 13-3 14-5 3-8 5-17 7-25 0-1-2-3-3-3s-4 0-4 1c-4 9-7 18-13 33zm-749-1205c14-9 15-9 23 3 1 2 2 5 4 6a20.158 20.158 0 0011 3c2 0 5-2 6-3 9-7 17-16 27-21s21-8 30-17c9 3 18 5 26 9 7 3 14 8 20 12 1 0 2 0 2-1 7-15 18-20 34-17 18 3 35 0 52-6 3 4 5 7 8 10 15 0 15 0 28 10 3-3 7-6 9-10 3-6 4-12 7-18a21.813 21.813 0 014-5c13 0 25-1 37-1 3 0 7 0 10 1 14 7 29 4 43 2 11-2 19-1 28 5 8 6 16 7 25 5a165.511 165.511 0 0132-3c5 0 9 2 14 3 4 1 8 3 12 2 14-5 28-3 41-2 8 1 14 0 21-5 5-3 10-5 15-8a25.625 25.625 0 0121 0c30 11 61 17 92 23 19 3 39 8 55 20 6 5 13 5 18 0 11-9 25-8 37-12a18.174 18.174 0 0114 3c11 9 23 12 37 9 16 21 38 23 62 22 16 0 31-2 46-4 10-1 17 2 22 11 7 12 18 22 15 36 5 5 13 9 13 13 0 12 8 18 15 24 2 2 4 4 5 6 6 19 12 37 17 56 3 10-7 14-11 22 1 6 2 12 3 19 1 10 2 19-5 28-4 6-7 14-3 21 5 12-3 20-6 30-4 13-14 15-24 17-9 12-12 25-6 37-7 12-14 23-20 33h-32c-5 0-7 7-4 12 5 8 11 16 17 24 3 5 1 10-4 13a7.581 7.581 0 01-4 2l-60 21a3.491 3.491 0 00-2 1c-14-1-27 1-39 10-3 3-10 1-14 3-14 3-29 4-41 17 0 2-1 6-1 9 2 11-13 20-4 33 6 9 13 17 20 27 5 0 12 1 18 0 17-3 34-6 51-10 17-5 32-1 46 10v17c0 5 4 9 9 10 2 0 3 1 5 1 37 1 68 17 97 38 22 15 45 29 68 44 4 3 7 6 6 13-6 1-11 2-16 3-2 1-4 4-4 6s1 5 3 6c3 2 8 4 11 4 10-1 19-3 29-5 15-4 23-3 43 4a87.941 87.941 0 01-6 10c-1 3-3 6-5 10 21 5 33 22 54 31-11 11-23 15-36 18-20 6-40 11-59 16-16 4-32 8-46 17a35.521 35.521 0 01-9 4c-19 2-35 12-52 21a48.745 48.745 0 01-11 4c-8 2-12 0-15-11-1-2-1-3-2-6-9-1-19-2-22-14 0-1-2-2-3-3-5-4-13-2-14 4s-3 13 0 19c4 7 10 10 19 11-1 6-5 12-3 16 4 9 9 18 16 25 12 12 26 23 43 27 9 2 18 7 27 11l36 15c7 3 15 7 21 12 7 5 7 13 3 20-4 6-8 12-13 19 7 5 13 9 21 15-2 6-4 12-4 18 0 5 3 10 5 16-7 11-21 12-31 19-1 4-3 7-5 12-16-6-32-3-48 3-6 2-13 5-19 4-12-1-22 0-32 8-5 4-14 2-21 3-6 1-12 1-14 7-4 11-13 11-22 12-11 14-12 31-14 47-1 10-2 19-9 28h-12a13.8 13.8 0 01-3 4c0 3 1 7 1 10 0 11-2 16-13 18-15 3-28 10-38 21a23.838 23.838 0 01-11 6c-6 2-13 4-19 3-8-1-9-8-11-14-1-2-5-4-5-4-2 2-5 4-6 7-1 4-1 8-1 13-16 3-30 1-43-3-1-3-2-5-3-8-1-5 0-11-3-14-4-4-10-7-15-7-21-2-41 2-54 20-10 14-22 24-41 20-6-1-11 1-16 5-2 2-4 3-5 5-8 12-19 15-32 12-2 3-4 6-5 9-4 10-11 14-21 15-39 3-77 13-117 17-11 1-23 0-34 1-23 3-43-6-65-10-29-5-54-17-78-33-6-4-15-6-23-8a48.542 48.542 0 00-17 0c-21 1-43 0-64 0a459.842 459.842 0 00-64 5c-11 2-21 7-33 11v18c-13 4-25 9-37 1v-4c1-5 11-7 5-14-5-5-11 0-16 2-7 4-14 8-22 13-13-6-25-2-36 5-2 1-4 4-6 4-25 0-44 17-67 22-14 3-29 8-43 10a121.875 121.875 0 01-27 0c-12-1-23-3-32 6-2 2-6 4-9 3-17-5-32 5-48 7-12 1-23 7-36 6a23.882 23.882 0 00-9 2c-18 12-38 9-57 7-8-1-16-2-24 2a29.585 29.585 0 01-10 2c-20-1-41-2-61-3a323.042 323.042 0 00-44 0c-32 1-62-6-91-18-8-3-17-7-25-9-6-2-12-4-18-8-13-10-27-11-42-4-5 2-10 5-16 6-4 1-9 3-12 2-17-6-36-4-51-15-3-2-7-5-11-6-16-1-26-14-37-23-11-8-10-22-11-34a245.189 245.189 0 012-27c1-13-3-18-15-22-4-1-8-2-12-2-3 0-6-1-10-1 8-12 20-7 30-11v-42c-13-9-27-17-42-20-12-2-22-6-31-13-12-9-27-11-40-4-15 8-27 3-38-6-4-3-8-8-11-12-37-3-73 5-108-12-7-16-14-35-40-31 2-9 10-10 13-15s9-8 15-13a229.77 229.77 0 00-23-15 149.4 149.4 0 00-33 44c-9-11-20-17-28-28s-22-19-33-28c-3-2-8-2-12-2h-28c-3 3-6 7-9 10s-7 5-11 3c-3-2-7-6-7-9-1-5 1-11 3-18-5 0-8-1-12 0a53.438 53.438 0 00-14 6c-2-16 5-25 17-32-1-6-1-12-2-17-13-6-13-6-20-13 4-9 16-4 21-14-2-4-4-8-7-15 1-2 3-4 3-7 2-9 3-17 13-22 3-1 3-8 6-14-7 2-11 2-17 4-4-6-9-13-14-21-4 6-7 10-11 16-3-3-7-5-9-8-1-1 0-5 1-7 13-13 27-20 46-19l3 15c7 3 14 3 21-3a54.956 54.956 0 01-7-9c3-9 12-7 18-11s11-9 18-15c2 0 6-1 10-1 8-1 14-3 18-11 5-11 14-15 25-17 7-1 14-3 20-11-6-9-13-18-23-23-15-8-30-16-49-14-15 1-29-3-38-18-3-5-8-8-13-11-14-11-15-15-10-32 1-5 3-9 6-15-5-4-9-7-13-11s-8-9-10-14c-3-7-1-13 6-17 4-2 9-4 13-7 3-12 2-26 14-32 2-10-4-17-8-24-5-10-4-14 4-21 4-3 8-6 13-10-2-3-3-6-5-8-3-4-2-8 0-11 5-8 13-10 21-11a34.7 34.7 0 0023-12c7-9 18-11 28-14a217.179 217.179 0 0024-7c4-2 9-4 12-8 14-15 27-30 41-46-10-24 2-40 21-54 4-3 8-6 11-10 11-17 26-21 44-15h5c2 0 3 1 5 1 8 15 8 15 26 21 0-4 1-8 1-12 6-5 14-4 18 0 13 13 28 11 45 8 6-13 12-27 28-34-10-15-5-31-7-46-1-11 6-18 16-23 10-4 20-8 26-20-2-4-4-9-6-14-4-9-1-16 7-21 12-6 25-12 36-19 6-4 10-10 16-16-8-14-4-31-15-43 13-6 27-10 43-8 8 1 14 0 20-6s15-10 24-15a50.084 50.084 0 01-7-8c-6-7-3-17 5-18 10-1 20-3 29-2 21 2 40-7 60-7 5-19 7-21 24-22h12c18-1 18-1 34 10q9-3 21-6c2-4 3-9 5-13 4-10 8-13 18-12 18 1 36 3 54-2a31.167 31.167 0 0126 5c8 6 17 7 26 3s18-2 26 1c9 3 17 2 26 2 25-2 51-4 76 3 6 2 13 2 19 2 8 0 16 1 24 5a35.292 35.292 0 0014 3c19-2 37 3 54 14 25-11 52-7 78-7 9 0 15 5 18 14 4 9 9 17 14 27 10 3 20 6 31 3 2 0 4-2 5-1 12 8 23-1 35-3 10-2 18-6 24-15 4 2 7 3 11 5 4-4 8-9 14-12 5-3 11-2 17-3-4 14-14 24-25 34a104.616 104.616 0 0017-4c7-2 11-7 11-14 0-5-2-11-3-16z" fill="#35343d"/></svg>