<svg xmlns="http://www.w3.org/2000/svg" width="1814.081" height="1331.626"><path data-name="Trazado 3713" d="M1180.081 1285.626c1 0 1 0 2-1 0-1 0-2-1-2a3.1 3.1 0 00-2 1c0 1 1 1 1 2zm556-728c-1 0-1 0-2 1a3.491 3.491 0 012 1c0-1 0-1-1-2zm-1 22c1 0 2 0 2-1a3.1 3.1 0 00-1-2c-1 0-2 0-2 1a3.1 3.1 0 001 2zm-1 123v-2h-2l1 1zm-531 584c0-1-1-1-1-2l-3 3a3.491 3.491 0 011 2c1-1 2-2 3-2zm531-630l-3-3a3.491 3.491 0 01-2 1l3 3a3.491 3.491 0 012-1zm-938 623c-2-3-3-6-5-7s-4 0-6 0c1 2 1 5 3 6 1 1 4 0 8 1zm93-72a13.8 13.8 0 004-3c-1-1-1-3-2-3-2-1-5-1-7-1-1 0-2 2-2 3a3.491 3.491 0 011 2c2 1 4 1 6 2zm76-5c2 1 3 2 4 1l9-3s0-3-1-4c-2-3-7-2-10 2 0 1-1 1-1 4zm99 37l-2 2c4 3 7 6 11 8a168.122 168.122 0 0032 9c-1-3-3-6-5-7-12-4-24-8-37-12zm91 37c-1-6-4-9-9-10-7-1-14-1-22-1-4 0-8 1-10 6-1 4 0 8 4 10 12-2 24-3 37-5zm536-467c-1 0-1 0-2-1h2c4 4 7 9 14 10-2-10-9-10-15-10zm-554-732c6 0 10 4 15 8 4 4 9 6 15 11 3-7 5-12 7-17 8-2 16-3 23 1 3 1 5 4 8 6 12 12 27 12 41 6s27-5 41-1c10 3 20 5 31 4 14-1 28 3 40 10 5 3 10 6 16 7 11 2 23 1 34 5s22 7 32 11c30 10 61 11 92 15 10 1 20 2 29 2 19 2 38 4 57 5 7 1 14 3 17 9 7 14 20 22 31 31a7.581 7.581 0 004 2h2c-1-1-1-2-2-2h-5c6-3 12-8 19-10 8-2 14 1 17 10-2 0-3 0-4 1-1 0-1 1-2 2 1 0 2 0 2-1a13.8 13.8 0 014-3c2 2 5 6 7 6a83.335 83.335 0 0135 14 3.491 3.491 0 012 1c9 4 20-3 30 6 7 7 19 8 29 11 3 1 6 1 10 1v124c-10 3-10 3-16-6h-5l-18 15c-9-3-15 4-23 9-3-4-7-9-11-14-22 2-46 1-66 17-1 0-1-1-2-1h-2c1 0 2 1 3 1l30 30c4 1 5-3 7-7 5-8 12-8 15-1 5 11 13 16 24 19a104.616 104.616 0 0117 4c10 3 12 11 5 18-6 6-13 12-20 18-8-5 1-13-5-19-9 1-15 7-21 13 6 12 6 12 5 20 6 4 12 7 18 11s9 10 5 17c-4 8-9 16-4 25 1 1 0 4-1 5-7 8-3 17-2 26 3 29 3 33-13 58 5 7 9 13 14 20-4 6-4 12-1 19 7 15 10 31 2 47-1 2-1 5-2 7-4 22-4 22-24 33a153.8 153.8 0 0112 13c-8 9-17 17-26 27 3 7 7 15 10 23 1 3 3 7 2 9-8 9 4 10 6 16-4 8-7 17-11 27 5 4 9 7 15 12-6 3-12 6-19 10 8 10 15 20 22 29a75.958 75.958 0 01-11 4 109.078 109.078 0 006 11c-3 5-7 2-11 1l-1-1h-1c1 0 2 1 3 1 3 16-5 30-10 44-1 3-4 5-5 8-3 10-10 14-20 14-3 7-6 13-9 20-6-1-11-1-17-2 0-1-1-1-1-2l2 2c3 10 13 12 19 18 8 7 8 7 13 20 13 3 28-1 41 9a70.061 70.061 0 00-8 10c0 14 17 12 21 23-5 5-13 4-17 11-2 5-10 7-17 12v-12c-5-4-10-4-13 1-6 10-13 19-23 25-6 4-8 10-6 17a81.121 81.121 0 013 11c-5 3-10 6-13 8 2 5 2 7 3 8 11 8 21 15 29 28-5 9-12 17-25 15-7-1-13 2-18 6-8 7-16 7-25 1-4-3-11-4-17-7-8 17-23 24-39 31-2-2-5-4-7-7-2 0-4 0-5 1-9 8-21 13-23 27-14 10-27 23-45 23-8 0-14 2-20 7-1 0-1 1-2 1-12 5-26 7-27 23-11 0-20 2-27-9 8-1 14-2 20-3-1-3-1-5-2-5-9-1-18-1-28-1-5 8-10 15-21 15-5 0-11 4-15 8-7 7-17 10-27 14-3-6-5-11-8-16-4-8-10-13-19-14-25-2-51-5-76-6-12-1-25-1-35 9-2 2-5 3-7 2-17-1-34 7-51 0-2-1-5-1-7-1-17 2-34 0-51-1-6 0-13 3-19 5-4 1-7 4-11 5-24 8-24 8-45-7-4-3-9-4-13-6l-18-6c0-12-6-21-16-27-4 5-9 10-14 16-2-3-4-5-5-7-8-14-13-16-27-7-18 12-38 13-60 13 1-7 1-12 2-17-8-3-16-3-23 2-2 13 12 15 16 25h-52c-8 0-16-1-24 4-3 2-6 2-10 2-12 3-25-3-37-1-11 1-22 5-34 2-6-1-12 0-19 2-10 3-22 6-32-2-8-6-16-7-26-4-7 3-15 1-22-1-6-1-11-1-15 5-1 2-5 4-6 3-14-9-30 2-45-5a33.717 33.717 0 00-31-1c-10 5-19-3-27-8-7-11-15-18-28-22a306.805 306.805 0 01-50-20c-14-7-29-11-39-25-3-5-11-7-17-10-13-7-21-18-23-33-1-5-3-9-4-14-4-11-14-19-15-33-1-12-8-23-8-36 0-2 0-5-1-7-13-26 1-45 13-65-4-15-9-30-11-45-1-6 3-12 6-20-8-1-15-3-22-3a122.523 122.523 0 00-19-2c-35 2-71 0-106-1-19 0-37-3-56-2-20 1-38-12-50-28-7-9-13-18-23-25-5-4-9-11-12-18-6-19-8-39-4-59 3-15 5-29 3-44-1-10 0-20 1-30 4-34 5-69 12-103 6-26 7-50 1-78-4-3-11-8-19-14 4-3 7-7 10-8 14-4 28-9 41-18a64.233 64.233 0 0130-11c14-1 25-8 34-18 6-6 12-9 21-11 18-4 37-7 54-15 6-3 14-2 22-2a69.71 69.71 0 0119 6c5 2 10 6 14 9 11-13 12-13 24-6 9 5 16 6 26 3s21-4 31-7 13-8 10-18c-5-23-11-46-16-70-3-18-5-36-7-54-3-19-5-37-9-56-4-22-4-44 6-65 8-5 18-5 27-4 11 0 20-2 24-13 5-11 13-13 24-12 6 1 11 0 17 0 6-20 6-20-7-34 3-6 7-12 10-19 6-11 12-22 8-35-1-4 1-8 2-12 4-12 7-24 12-35 2-4 6-9 10-10 49-9 96-25 145-27 1 0 1 1 2 2l-6 6c5 3 10 7 16 9 2 1 7-1 8-3s-2-6-3-8a46.711 46.711 0 0110-5c4 1 8 1 13 2 1-3 2-5 2-7 1-5 5-8 8-6s5 4 8 6c4 3 7 7 11 10 12 8 12 8 24 26-10 2-14-8-23-12-4 1-11 1-19 2 3 6 6 12 10 19 9 1 19 3 30 4 1 2 2 6 3 9 1 6 6 10 11 12 15 6 29 11 44 17 8 3 17 3 24-2 11-7 23-7 36-5 8 1 14-2 21-3 27-5 54-16 82-12 7 1 14 1 22-2 20-8 40-5 58 9 2 1 5 1 7 2a7.559 7.559 0 004-1c1-5 1-10 2-15 11-4 22-9 33-11a256.125 256.125 0 0139-3 7.638 7.638 0 015 2c14 14 33 13 51 15 8 1 17 1 21 10-5 1-10-5-15 3 6-1 10-3 15-4z" fill="#35343d"/></svg>