<svg xmlns="http://www.w3.org/2000/svg" width="142" height="128"><g data-name="Grupo 69"><g data-name="Grupo 56"><g data-name="Grupo 55"><path data-name="Trazado 52" d="M118 4H2a2 2 0 00-2 2v40h4V8h112v44H46v4h72a2 2 0 002-2V6a2 2 0 00-2-2z" fill="#fff"/></g></g><g data-name="Grupo 58"><g data-name="Grupo 57"><path data-name="Rect치ngulo 25" fill="#fff" d="M66 14h40v4H66z"/></g></g><g data-name="Grupo 60"><g data-name="Grupo 59"><path data-name="Rect치ngulo 26" fill="#fff" d="M72 26h40v4H72z"/></g></g><g data-name="Grupo 62"><g data-name="Grupo 61"><path data-name="Rect치ngulo 27" fill="#fff" d="M64 38h40v4H64z"/></g></g><g data-name="Grupo 64"><g data-name="Grupo 63"><path data-name="Trazado 53" d="M63.84 21.243a6.454 6.454 0 00-8.438-3.48 6.058 6.058 0 00-.168.072l-16.216 8.414A9.89 9.89 0 0040 22a10 10 0 10-17.949 6h-.083a13.724 13.724 0 00-12.749 8.879L3.88 55.281a6.406 6.406 0 1012.028 4.406L18 53.031v28.946a9.97 9.97 0 00-12.978 15.09A9.214 9.214 0 000 105.24V122a2 2 0 002 2h20a2 2 0 002-2v-16.76A9.193 9.193 0 0020.431 98h15.138A9.191 9.191 0 0032 105.24V122a2 2 0 002 2h20a2 2 0 002-2v-16.76a9.214 9.214 0 00-5.022-8.173A9.991 9.991 0 0042 80.128V39.215l18.36-9.533a6.454 6.454 0 003.48-8.439zM30 16a6 6 0 11-6 6 6 6 0 016-6zM12 83.926a6 6 0 11-6 6 6 6 0 016-6zM20 120H4v-14.76A5.248 5.248 0 019.241 100h5.517A5.248 5.248 0 0120 105.24zm32-14.76V120H36v-14.76a5.248 5.248 0 015.241-5.24h5.518A5.248 5.248 0 0152 105.24zm-8-21.314a6 6 0 11-6 6 6.006 6.006 0 016-6zM60.181 24.58a2.572 2.572 0 01-1.51 1.48L39.079 36.225A2 2 0 0038 38v43.977A9.865 9.865 0 0034.888 94H32V60h-4v34h-6.888a9.908 9.908 0 00.881-4H22V40a2 2 0 00-3.908-.6l-5.972 19a2.4 2.4 0 01-3.336 1.33 2.455 2.455 0 01-1.117-3.176l5.339-18.4A9.663 9.663 0 0121.968 32h14.161a1.992 1.992 0 00.921-.225l19.878-10.318a2.462 2.462 0 013.147 1.166 2.433 2.433 0 01.106 1.957z" fill="#fff"/></g></g><g data-name="Grupo 66"><g data-name="Grupo 65"><path data-name="Trazado 54" d="M82.978 97.068a10 10 0 10-14.141-.184q.091.093.184.184A9.214 9.214 0 0064 105.241v16.76a2 2 0 002 2h20a2 2 0 002-2v-16.76a9.214 9.214 0 00-5.022-8.173zM76 83.927a6 6 0 11-6 6 6 6 0 016-6zm8 36.074H68v-14.76a5.248 5.248 0 015.241-5.24h5.517a5.248 5.248 0 015.241 5.24z" fill="#fff"/></g></g><g data-name="Grupo 68"><g data-name="Grupo 67"><path data-name="Trazado 55" d="M114.978 97.068a10 10 0 10-14.141-.184q.091.093.184.184A9.214 9.214 0 0096 105.241v16.76a2 2 0 002 2h20a2 2 0 002-2v-16.76a9.214 9.214 0 00-5.022-8.173zM108 83.927a6 6 0 11-6 6 6 6 0 016-6zm8 36.074h-16v-14.76a5.248 5.248 0 015.241-5.24h5.517a5.248 5.248 0 015.241 5.24z" fill="#fff"/></g></g><path data-name="Rect치ngulo 28" fill="none" d="M14 0h128v128H14z"/></g></svg>