<svg xmlns="http://www.w3.org/2000/svg" width="64" height="64"><g data-name="Grupo 32"><g fill="#1192ee"><path data-name="Trazado 7" d="M41.611 22.486a1.5 1.5 0 00-1.52 1.52 1.522 1.522 0 001.52 1.52 1.56 1.56 0 001.52-1.52 1.541 1.541 0 00-1.52-1.52zm0 0"/><path data-name="Trazado 8" d="M40.485 20.065c0 .536.411.856 1.1.856.425 0 1.1-.232 1.1-.856 0-1.459.079-3.191.155-4.865s.155-3.407.155-4.867a1.272 1.272 0 00-1.41-1.228 1.246 1.246 0 00-1.387 1.232c0 1.46.073 3.192.144 4.867s.143 3.406.143 4.861zm0 0"/><path data-name="Trazado 9" d="M45.355 20.065c0 .536.411.856 1.1.856.425 0 1.1-.232 1.1-.856 0-1.459.079-3.191.155-4.865s.155-3.407.155-4.867a1.272 1.272 0 00-1.409-1.232 1.246 1.246 0 00-1.387 1.232c0 1.46.073 3.192.144 4.867s.142 3.41.142 4.865zm0 0"/><path data-name="Trazado 10" d="M46.477 22.486a1.5 1.5 0 00-1.52 1.52 1.521 1.521 0 001.52 1.52 1.559 1.559 0 001.52-1.52 1.54 1.54 0 00-1.52-1.52zm0 0"/><path data-name="Trazado 11" d="M50.221 20.065c0 .536.411.856 1.1.856.425 0 1.1-.232 1.1-.856 0-1.459.079-3.191.155-4.865s.155-3.407.155-4.867a1.272 1.272 0 00-1.41-1.232 1.246 1.246 0 00-1.387 1.232c0 1.46.073 3.192.144 4.867s.143 3.41.143 4.865zm0 0"/><path data-name="Trazado 12" d="M51.341 22.486a1.5 1.5 0 00-1.52 1.52 1.521 1.521 0 001.52 1.52 1.559 1.559 0 001.52-1.52 1.54 1.54 0 00-1.52-1.52zm0 0"/><path data-name="Trazado 13" d="M24.795 26.886a.95.95 0 00-.95.95v1.99a.95.95 0 101.9 0v-1.99a.95.95 0 00-.95-.95zm0 0"/><path data-name="Trazado 14" d="M15.555 29.825v-1.99a.95.95 0 00-1.9 0v1.99a.95.95 0 101.9 0zm0 0"/><path data-name="Trazado 15" d="M17.502 24.17a.951.951 0 00-1.089-.787l-3.919.633a.95.95 0 10.3 1.876l3.92-.633a.951.951 0 00.788-1.089zm0 0"/><path data-name="Trazado 16" d="M26.907 24.016l-3.919-.633a.95.95 0 10-.3 1.875l3.919.633a.95.95 0 10.3-1.875zm0 0"/><path data-name="Trazado 17" d="M19.352 39.331h.7a4.406 4.406 0 004.4-4.4v-.539a.95.95 0 00-.95-.95h-7.6a.95.95 0 00-.95.95v.539a4.406 4.406 0 004.4 4.4zm3.166-3.99a2.5 2.5 0 01-2.467 2.089h-.7a2.5 2.5 0 01-2.467-2.089zm0 0"/><path data-name="Trazado 18" d="M46.507 3.357a19.61 19.61 0 00-7.276 1.379A22.507 22.507 0 0037.997.572a.95.95 0 00-1.573-.259c-3.191 3.526-8.6 2.972-14.331 2.387-1.4-.143-2.849-.292-4.269-.378a10.015 10.015 0 00-9.74 5.747 5.922 5.922 0 00-6.846 5.741c-.08 4.132 1.7 8.419 2.68 10.468a4.893 4.893 0 00-3.794 4.609 4.975 4.975 0 004.541 4.756 15.324 15.324 0 009.515 11.54v2.841H8.494a7.118 7.118 0 00-7.11 7.109v7.917a.95.95 0 00.95.95h34.717a.95.95 0 00.95-.95v-7.917a7.117 7.117 0 00-7.109-7.109h-5.686v-2.84a15.241 15.241 0 009.4-10.931 16.872 16.872 0 004.636-2.153 19.543 19.543 0 007.265 1.369 19.33 19.33 0 009.681-2.537.95.95 0 00-.952-1.645 17.42 17.42 0 01-8.729 2.281 17.6 17.6 0 01-7.011-1.42.95.95 0 00-.942.11 16.162 16.162 0 01-6.589 2.677 17.839 17.839 0 002.19-6.017.949.949 0 00-.212-.792 11.771 11.771 0 01-2.949-7.712c0-7.253 6.959-13.154 15.513-13.154s15.517 5.898 15.517 13.151a12.107 12.107 0 01-4.2 8.989.95.95 0 101.274 1.409 13.981 13.981 0 004.821-10.4c0-8.3-7.812-15.054-17.413-15.054zM2.024 28.887a3 3 0 012.4-2.782v4.826q0 .372.018.742a3 3 0 01-2.418-2.786zm22.482 21.036h1.518l-1.466 5.145-3.31-3.31zm5.3 0l.308 7.788-3.232.808a.95.95 0 00-.441 1.594l1.983 1.987h-3.892l3.469-12.177zm-10.113 2.965l1.814 1.812-1.9 2.343-1.783-2.282zm4.271 4.271L22.871 61l-1.974-2.52 1.961-2.422zm-7.5-1.045l2 2.551-1.933 2.388-1.107-3.895zm3.288 3.986l1.57 2h-3.193zm-4.928-5.032l-1.465-5.145h1.519l3.256 1.835zm-11.54.065a5.218 5.218 0 014.392-5.145l-.1 2.421a.95.95 0 00.912.987h.038a.951.951 0 00.949-.913l.1-2.561h1.806L14.855 62.1h-3.9l1.987-1.987a.95.95 0 00-.441-1.593l-3.232-.808.073-1.842a.95.95 0 00-1.9-.075l-.1 2.614a.951.951 0 00.719.959l2.354.588L8.273 62.1H3.284zm32.817 0V62.1h-4.989l-2.144-2.144 2.354-.588a.95.95 0 00.719-.959l-.333-8.42a5.217 5.217 0 014.392 5.145zm-12.795-6.714l-3.613 2.036-3.613-2.036v-2.643a15.422 15.422 0 007.226 0zM32.202 27a13.088 13.088 0 01-3.063 6.479.95.95 0 00.671 1.622h.027a18.2 18.2 0 002.675-.332 13.374 13.374 0 01-26.188-3.837v-5.016a6.833 6.833 0 004.846-3.534 12.191 12.191 0 001.05-2.269 27.822 27.822 0 004.871 1.724 23.971 23.971 0 0012.444-.037 14 14 0 002.667 5.2zm-3.108-8.589a13.219 13.219 0 00.089 1.514c-8.8 2.642-17-1.952-17.08-2a.951.951 0 00-1.4.629 10.455 10.455 0 01-1.179 2.89 4.918 4.918 0 01-3.588 2.609c-.766-1.506-2.874-6.045-2.793-10.209a4.025 4.025 0 015.229-3.765.95.95 0 001.169-.579 8.127 8.127 0 018.168-5.287c1.38.084 2.809.23 4.19.372 5.4.554 10.977 1.124 14.825-1.958a22.766 22.766 0 01.728 2.927c-5.008 2.646-8.358 7.421-8.358 12.857zm0 0"/></g><path data-name="Rectángulo 6" fill="none" d="M0 0h64v64H0z"/></g></svg>