<svg xmlns="http://www.w3.org/2000/svg" width="48" height="48"><g fill="#ac0101"><path d="M41.184 6.75H6.947a5.545 5.545 0 00-5.541 5.541v23.4a5.545 5.545 0 005.541 5.541h34.228a5.545 5.545 0 005.541-5.541V12.3a5.539 5.539 0 00-5.532-5.55zm3.009 28.941a3.013 3.013 0 01-3.009 3.009H6.947a3.013 3.013 0 01-3.009-3.009V12.3a3.013 3.013 0 013.009-3.009h34.228a3.013 3.013 0 013.009 3.009v23.391z"/><path d="M29.98 23.7l11.081-9.937a1.269 1.269 0 00-1.7-1.884L24.08 25.594l-2.981-2.662c-.009-.009-.019-.019-.019-.028a1.874 1.874 0 00-.206-.178L8.746 11.869a1.268 1.268 0 10-1.687 1.894l11.212 10.022L7.106 34.237a1.271 1.271 0 00-.056 1.791 1.3 1.3 0 00.928.4 1.268 1.268 0 00.862-.338l11.334-10.6 3.075 2.747a1.262 1.262 0 001.688-.009l3.159-2.831 11.269 10.706a1.269 1.269 0 001.791-.047 1.271 1.271 0 00-.047-1.791z"/></g><path fill="none" d="M0 0h48v48H0z"/></svg>