<svg xmlns="http://www.w3.org/2000/svg" width="48" height="48"><path d="M24 0A16.878 16.878 0 009.644 25.749l13.4 21.587a1.406 1.406 0 001.19.664h.011a1.406 1.406 0 001.2-.684l13.054-21.8A16.879 16.879 0 0024 0zm12.081 24.077L24.213 43.892 12.034 24.267a14.072 14.072 0 1124.047-.19z" fill="#ac0101"/><path d="M24.001 8.438a8.438 8.438 0 108.438 8.438 8.447 8.447 0 00-8.438-8.438zm0 14.081a5.644 5.644 0 115.634-5.644 5.648 5.648 0 01-5.634 5.644z" fill="#ac0101"/><path fill="none" d="M0 0h48v48H0z"/></svg>