<svg xmlns="http://www.w3.org/2000/svg" width="149.322" height="56"><path d="M85.269 10.28v2.92c0 1.622-.007 3.243.006 4.865 0 .256-.072.309-.312.3-.6-.018-1.191-.012-1.787 0-.184 0-.27-.018-.269-.243q.012-5.56 0-11.12c0-.2.069-.232.246-.231 1.2.007 2.4.009 3.607 0 .214 0 .3.058.349.274.458 1.927.932 3.851 1.449 5.786.107-.451.217-.9.322-1.353.341-1.469.688-2.937 1.013-4.409.055-.25.161-.3.393-.3q1.77.017 3.541 0c.214 0 .3.026.3.276q-.013 5.527 0 11.054c0 .226-.071.269-.278.266a72.809 72.809 0 00-2.383 0c-.247.005-.279-.083-.279-.3q.011-3.789 0-7.579v-.2l-.053-.013c-.13.549-.263 1.1-.39 1.647q-.708 3.073-1.408 6.148c-.048.214-.116.31-.36.3a9.175 9.175 0 00-1.29 0c-.338.027-.461-.079-.539-.416-.578-2.487-1.181-4.968-1.775-7.451a.32.32 0 00-.112-.223" fill="#012c51"/><path d="M138.739 29.315c0-1.82.008-3.64-.008-5.46 0-.288.084-.337.348-.333 1 .016 2.008.014 3.011 0 .249 0 .334.048.331.318-.016 1.235 0 2.471-.012 3.706 0 .231.059.3.29.29a59.915 59.915 0 012.283 0c.207 0 .256-.056.255-.258-.01-1.246 0-2.493-.012-3.739 0-.269.079-.321.328-.317q1.539.021 3.077 0c.233 0 .292.063.291.293q-.011 5.51 0 11.02c0 .2-.026.29-.264.287a124.614 124.614 0 00-3.177 0c-.21 0-.254-.059-.252-.258.009-1.3 0-2.6.011-3.9 0-.261-.04-.361-.332-.351-.727.024-1.456.018-2.184 0-.239 0-.318.045-.315.3.015 1.3 0 2.6.014 3.9 0 .254-.07.307-.312.3a96.526 96.526 0 00-3.044 0c-.292.006-.333-.09-.331-.35.011-1.82.006-3.64.006-5.46m-51.872-1.24a11.021 11.021 0 01.176 2.2 330.93 330.93 0 000 4.566c0 .229-.051.3-.287.291a71.347 71.347 0 00-2.448 0c-.194 0-.262-.034-.262-.249q.011-5.543 0-11.085c0-.191.03-.266.247-.263 1 .013 2.007.008 3.011 0a.333.333 0 01.327.159c1.062 1.635 2.136 3.263 3.194 4.9.249.385.453.8.713 1.263-.054-.472-.108-.878-.146-1.284-.149-1.607-.052-3.219-.083-4.828 0-.15.029-.214.2-.213q1.29.012 2.581 0c.182 0 .217.065.216.231q-.006 5.559 0 11.118c0 .22-.081.249-.269.247a90.803 90.803 0 00-2.448 0 .446.446 0 01-.443-.251c-1.4-2.289-3.013-4.451-4.228-6.855l-.047-.109c-.071.048-.024.1-.008.155m18.371 5.921a4.67 4.67 0 01-5.122 1.033 4.865 4.865 0 01-3.344-3.967 7.761 7.761 0 01.2-3.922 5.118 5.118 0 015.051-3.783 6.641 6.641 0 012.129.223 4.6 4.6 0 013.326 3.668c.039.161 0 .2-.167.216q-1.582.14-3.161.3c-.155.016-.218-.024-.236-.182a2.241 2.241 0 00-.225-.723 1.422 1.422 0 00-1.269-.864 1.45 1.45 0 00-1.435.759 4.056 4.056 0 00-.462 1.742 7.95 7.95 0 00.163 2.7 1.828 1.828 0 002.471 1.3 1.437 1.437 0 00.932-1.15c.033-.184 0-.255-.2-.25-.5.013-.993 0-1.489.008-.2 0-.29-.027-.284-.261.018-.651.012-1.3 0-1.953 0-.179.035-.246.232-.245q2.466.012 4.932 0c.193 0 .235.06.235.243q-.009 3.012 0 6.025c0 .2-.071.235-.247.231a23.378 23.378 0 00-1.324 0 .26.26 0 01-.3-.217 3.549 3.549 0 00-.406-.928" fill="#9b0202"/><path d="M81.104 43.942v-.03h.017zm4.483 2.087a40.022 40.022 0 01-.228-5.927c-.007-.289.062-.369.356-.359.727.024 1.456.013 2.185 0 .182 0 .27.014.269.241q-.012 5.561 0 11.123c0 .2-.064.234-.244.232-.783-.009-1.567-.006-2.35 0a.317.317 0 01-.321-.166c-1.073-1.8-2.162-3.585-3.224-5.388-.321-.546-.572-1.133-.848-1.687a64.008 64.008 0 01.168 6.976c.006.185-.018.273-.242.268a66.283 66.283 0 00-2.317 0c-.186 0-.239-.049-.239-.237q.008-5.562 0-11.123c0-.189.055-.238.24-.236q1.407.013 2.814 0a.34.34 0 01.334.2c1.186 2.01 2.546 3.918 3.575 6.021.008.016.032.025.075.056" fill="#012c51"/><path d="M131.367 35.321a7.994 7.994 0 01-2.834-.466 4.421 4.421 0 01-2.627-2.837c-.058-.169-.01-.224.156-.251 1.01-.169 2.02-.34 3.028-.525.153-.028.188.031.233.143a1.838 1.838 0 001.524 1.165 3.47 3.47 0 001.412-.029c.3-.073.568-.2.6-.568a.682.682 0 00-.493-.737 11.2 11.2 0 00-1.889-.463 13.547 13.547 0 01-2.077-.649 3.28 3.28 0 01-1.315-4.972 4.121 4.121 0 012.6-1.616 7.273 7.273 0 014.072.21 4.222 4.222 0 012.416 2.315c.088.192.053.257-.145.313-.858.241-1.713.495-2.567.75a.233.233 0 01-.33-.135 2.143 2.143 0 00-2.618-.868.62.62 0 00-.42.578.609.609 0 00.43.605 10.314 10.314 0 001.632.411 19.324 19.324 0 012.234.585 3.323 3.323 0 011.349 5.389 5.256 5.256 0 01-3.434 1.582c-.35.041-.7.054-.944.071" fill="#9b0202"/><path d="M108.111 10.358v.924c0 .083-.027.2.11.193a6.907 6.907 0 001.868-.094 1.04 1.04 0 00.7-1.23.972.972 0 00-.994-.912c-.494-.023-.99 0-1.484-.012-.161 0-.21.052-.206.208.009.308 0 .616 0 .924m5.986 8.007c-1.1 0-2.2-.006-3.3.005-.2 0-.207-.124-.246-.241-.447-1.312-.9-2.623-1.331-3.939a.319.319 0 00-.366-.266c-.738.009-.738 0-.738.736 0 1.136 0 2.273.005 3.409 0 .216-.031.306-.279.3a71.238 71.238 0 00-2.615 0c-.227 0-.266-.072-.266-.279q.009-5.511 0-11.022c0-.22.039-.3.281-.3 1.743.011 3.486 0 5.23.009a4.284 4.284 0 011.556.27 3.063 3.063 0 012.068 2.885 3.129 3.129 0 01-1.636 3.276c-.2.1-.145.22-.089.371q.829 2.227 1.65 4.457a.621.621 0 01.083.332" fill="#012c51"/><path d="M72.86 29.322c0-1.831.005-3.663-.006-5.494 0-.248.059-.307.306-.306q4.2.015 8.407 0c.272 0 .321.085.315.331-.016.651-.019 1.3 0 1.953.009.286-.048.387-.366.383-1.577-.019-3.155 0-4.733-.016-.28 0-.358.077-.338.348a7.741 7.741 0 010 1.025c-.014.233.059.294.291.292 1.269-.012 2.538 0 3.806-.011.224 0 .3.045.3.285-.017.695-.016 1.39 0 2.085.005.231-.059.293-.29.291-1.269-.012-2.538 0-3.806-.011-.225 0-.308.049-.3.288.02.429.021.861 0 1.29-.012.245.081.285.3.283 1.6-.009 3.2 0 4.8-.012.282 0 .345.075.337.345-.02.705-.016 1.412 0 2.118.005.243-.039.334-.314.333q-4.2-.018-8.407 0c-.245 0-.309-.055-.307-.3.012-1.831.006-3.663.006-5.494" fill="#9b0202"/><path d="M93.981 51.539a6.8 6.8 0 01-2.448-.447 4.311 4.311 0 01-2.5-2.859c-.047-.147-.024-.216.14-.245.954-.17 1.908-.345 2.859-.529.143-.028.159.042.2.138a2.238 2.238 0 002.9 1.094.613.613 0 00.423-.54.667.667 0 00-.365-.655 4.418 4.418 0 00-1.291-.388 16.436 16.436 0 01-2.188-.626 3.422 3.422 0 01-1.169-5.632 4.089 4.089 0 012.061-1.117 6.561 6.561 0 013.62.146 4.114 4.114 0 012.469 2.424c.076.178.014.218-.141.265q-1.216.368-2.427.756c-.172.055-.236.009-.318-.149a1.925 1.925 0 00-2.384-.882.622.622 0 00-.447.592.606.606 0 00.406.619 9.288 9.288 0 001.529.409 19.786 19.786 0 011.942.531 3.266 3.266 0 012.2 3.455 3.754 3.754 0 01-2.789 3.3 6.748 6.748 0 01-2.287.34m48.426-40.393c.269 2.307.079 4.592.147 6.872.009.3-.079.364-.362.354-.65-.022-1.3-.017-1.953 0-.211 0-.252-.063-.252-.26q.009-5.544 0-11.089c0-.217.071-.251.264-.248.816.01 1.633.015 2.449 0a.414.414 0 01.429.262c1.089 2 2.315 3.92 3.294 6.045-.049-.535-.1-1.011-.136-1.488-.116-1.532-.03-3.066-.061-4.6 0-.181.059-.218.225-.216.717.008 1.434.01 2.152 0 .18 0 .216.058.216.225q-.006 5.578 0 11.155c0 .182-.06.217-.226.215q-1.076-.012-2.152 0a.3.3 0 01-.311-.178c-.994-1.816-2-3.623-2.988-5.444-.274-.507-.484-1.049-.735-1.6m-1.546 34.383c0-1.832 0-3.664-.005-5.5 0-.224.045-.3.284-.295q3.956.014 7.912 0c.225 0 .276.067.272.278a51.99 51.99 0 000 2.052c.006.252-.051.335-.321.332-1.479-.015-2.957 0-4.436-.013-.251 0-.347.05-.328.32a8.853 8.853 0 010 1.092c-.011.212.061.254.259.252 1.181-.009 2.361 0 3.542-.01.232 0 .324.032.315.3a29.872 29.872 0 000 2.052c.01.281-.1.314-.334.311-1.159-.011-2.317 0-3.476-.011-.247 0-.321.056-.308.307.023.429.021.861 0 1.29-.011.229.073.267.279.266 1.49-.008 2.98 0 4.469-.012.286 0 .344.083.337.35a48.23 48.23 0 000 2.185c0 .2-.055.259-.259.258q-3.973-.01-7.945 0c-.23 0-.265-.077-.264-.28.007-1.843 0-3.686 0-5.528m-9.894-1.466c0 1.257.049 2.517-.011 3.771a3.394 3.394 0 01-2.985 3.534 6.973 6.973 0 01-3.66-.137 3.254 3.254 0 01-2.554-3.388c-.034-2.625-.008-5.25-.014-7.876 0-.174.049-.223.222-.222 1.026.007 2.052.013 3.077 0 .263 0 .212.147.212.294v7.082a2.714 2.714 0 00.13.944 1.047 1.047 0 00.47.576 1.935 1.935 0 002.047-.238.951.951 0 00.326-.665c.022-.44.053-.881.054-1.322.006-2.118.008-4.236 0-6.354 0-.27.081-.323.329-.317.695.016 1.39.02 2.084 0 .261-.008.3.081.3.317-.011 1.335-.005 2.669-.005 4zm-35.066-31.51c0-1.82.006-3.639-.006-5.459 0-.259.065-.324.324-.323q3.573.016 7.147 0c.246 0 .314.055.307.3-.019.694-.015 1.39 0 2.084 0 .215-.054.274-.271.272-1.356-.01-2.713 0-4.069-.013-.284 0-.355.079-.336.348a7.967 7.967 0 010 1.025c-.013.229.052.3.287.294 1.059-.013 2.118 0 3.176-.012.246 0 .316.055.309.306-.019.694-.016 1.39 0 2.084 0 .221-.063.273-.276.271-1.059-.01-2.118.005-3.176-.012-.269 0-.331.081-.319.331.02.407.02.817 0 1.224-.012.242.048.315.3.312 1.356-.015 2.713 0 4.069-.014.25 0 .311.062.3.307a56.5 56.5 0 000 2.217c0 .18-.011.27-.239.269q-3.639-.014-7.279 0c-.251 0-.253-.107-.252-.292q.006-2.763 0-5.525m38.801 1.035l-.828-3.321-.053.012-.822 3.308zm-5.412 4.783c.405-1.477.8-2.929 1.2-4.381.635-2.3 1.275-4.6 1.9-6.9.061-.223.136-.316.388-.31.915.018 1.831.014 2.746 0 .209 0 .3.046.362.262q1.529 5.535 3.081 11.064c.062.22.04.277-.2.273q-1.34-.019-2.68 0c-.206 0-.282-.06-.328-.261-.135-.59-.305-1.171-.442-1.761-.044-.189-.121-.242-.31-.239q-1.158.017-2.316 0a.261.261 0 00-.312.239c-.151.608-.333 1.209-.49 1.816-.036.14-.079.2-.235.2-.782-.007-1.564 0-2.37 0m-52.48-8.094l-.061.013-.817 3.29h1.7l-.822-3.3m-4.589 8.091l1.286-4.67c.608-2.206 1.221-4.411 1.822-6.619.061-.223.143-.31.391-.306.926.018 1.853.012 2.779 0a.265.265 0 01.314.234q1.535 5.55 3.092 11.1c.066.235.016.269-.206.267-.893-.011-1.787-.012-2.68 0-.213 0-.278-.071-.323-.266-.134-.579-.3-1.149-.437-1.728-.045-.194-.106-.272-.321-.268a63.86 63.86 0 01-2.316 0c-.193 0-.261.059-.308.244-.152.608-.331 1.209-.491 1.815-.031.117-.052.2-.2.2-.792-.006-1.584 0-2.4 0m51.195-5.674a7.082 7.082 0 00.2 2.131 1.329 1.329 0 001.214 1.086 1.166 1.166 0 001.136-.652 2.506 2.506 0 00.29-1.042c.011-.162.055-.23.238-.215.835.068 1.671.124 2.507.179.118.008.181.026.165.168a4.334 4.334 0 01-3.277 4.088 4.311 4.311 0 01-5.167-2.645 8.3 8.3 0 01.165-6.715 4.284 4.284 0 015.651-2.19 4.015 4.015 0 012.42 2.981c.1.359.13.737.2 1.1.04.2-.029.264-.232.274-.837.042-1.673.1-2.509.158-.175.013-.2-.06-.2-.205a3.427 3.427 0 00-.149-.977 1.635 1.635 0 00-.318-.573 1.089 1.089 0 00-1.835.154 4.245 4.245 0 00-.494 1.967c-.023.307 0 .617 0 .926" fill="#012c51"/><path d="M110.202 29.322c0-1.832.006-3.664-.007-5.5 0-.251.065-.308.309-.3q1.523.022 3.045 0c.254 0 .328.057.327.321-.01 2.693 0 5.385-.015 8.077 0 .3.088.357.367.354 1.357-.015 2.715 0 4.072-.012.231 0 .326.031.318.3a52.639 52.639 0 000 2.317c0 .183-.042.244-.235.244q-3.973-.009-7.945 0c-.231 0-.237-.1-.237-.272q.007-2.764 0-5.529" fill="#9b0202"/><path d="M105.152 46.926c0 1.367-.006 2.735.005 4.1 0 .236-.041.323-.3.317q-1.339-.027-2.679 0c-.26.005-.3-.08-.3-.316.008-2.713 0-5.425.011-8.138 0-.272-.039-.384-.35-.367-.583.031-1.169 0-1.753.013-.186 0-.241-.048-.239-.237q.016-1.158 0-2.316c0-.185.048-.239.236-.238q3.738.009 7.476 0c.189 0 .239.055.237.24q-.015 1.158 0 2.316c0 .194-.062.238-.244.235-.6-.01-1.191.013-1.786-.011-.275-.011-.319.088-.317.332.011 1.356.005 2.713.005 4.069m13.373.025c0 1.367-.006 2.735.005 4.1 0 .232-.061.3-.293.292a75.289 75.289 0 00-2.646 0c-.27.005-.347-.06-.346-.34.011-2.713 0-5.425.013-8.138 0-.274-.062-.354-.34-.342-.583.024-1.169 0-1.753.011-.172 0-.252-.022-.249-.226.012-.783.011-1.566 0-2.348 0-.183.061-.215.227-.215q3.738.007 7.476 0c.176 0 .251.03.248.23a68.713 68.713 0 000 2.315c0 .223-.083.247-.268.244-.6-.01-1.191.007-1.786-.009-.228-.006-.3.053-.294.288.011 1.378.006 2.757.005 4.135m18.938-.019c0 1.367-.006 2.735.005 4.1 0 .239-.046.32-.3.315q-1.339-.027-2.679 0c-.263.005-.3-.085-.3-.319.008-2.713 0-5.425.011-8.138 0-.277-.045-.381-.352-.365-.583.029-1.169 0-1.753.013-.189 0-.239-.053-.237-.239q.015-1.158 0-2.316c0-.188.053-.237.238-.236q3.738.009 7.476 0c.192 0 .237.06.235.242a89.401 89.401 0 000 2.316c0 .2-.067.236-.246.233-.551-.01-1.1 0-1.654 0-.442 0-.442 0-.442.426v3.97" fill="#012c51"/><path d="M124.265 29.34c0 1.821-.006 3.642.007 5.462 0 .264-.073.325-.327.321a112.865 112.865 0 00-3.079 0c-.216 0-.273-.055-.272-.272q.01-5.528 0-11.057c0-.219.061-.272.274-.27q1.556.016 3.112 0c.229 0 .293.054.292.288-.01 1.843-.006 3.686-.006 5.528" fill="#9b0202"/><path d="M76.574 45.565c0 1.821-.006 3.641.007 5.462 0 .268-.079.321-.328.318-.949-.014-1.9-.01-2.847 0-.193 0-.287-.016-.287-.257q.013-5.545 0-11.09c0-.214.066-.251.261-.249.971.01 1.942.013 2.913 0 .238 0 .287.066.285.293-.01 1.843-.005 3.685-.006 5.528m35.359.007c0 1.821-.005 3.641.006 5.462 0 .248-.059.31-.306.306-.96-.016-1.92-.013-2.88 0-.214 0-.274-.053-.274-.271q.011-5.528 0-11.056c0-.218.058-.274.273-.271.96.012 1.92.014 2.88 0 .246 0 .309.055.307.3-.012 1.843-.006 3.685-.006 5.528m3.689-33.004c0-1.831.005-3.662-.006-5.494 0-.248.059-.312.307-.307.86.017 1.721.014 2.581 0 .215 0 .274.054.274.272q-.01 5.527 0 11.053c0 .216-.055.277-.272.273a79.31 79.31 0 00-2.581 0c-.247 0-.31-.058-.308-.307.012-1.831.006-3.662.006-5.493" fill="#012c51"/><path d="M67.922 1.546c.007-.212-.062-.331-.3-.339-.489-.016-24.946-.047-34.981.136-2.229.04-4.453.023-6.683.25a11.978 11.978 0 00-7.2 3.122c-1.721 1.606-2.524 2.581-4.016 6.2C13.527 13.86 2.853 49.207 1.551 53.382c-.4 1.273-.4 1.3.936 1.268 2.032-.05 61.684.146 64.9.139.246 0 .528.01.544-.385-.023-8.786-.023-52.675-.017-52.853m1.263 52.861a2.058 2.058 0 01-.026.338c-.13.782-.434 1.15-1.184 1.24a5.1 5.1 0 01-.6.013c-6.8 0-64.2-.079-66.051-.145a1.328 1.328 0 01-1.24-1.827c.7-2.237 10.451-33.507 11.413-36.617.586-1.895 1.324-4.3 2.162-6.842 1.437-3.745 2.7-5.736 6.351-8.279A11.928 11.928 0 0124.407.61a38.291 38.291 0 015.592-.477C40.885-.018 67.405-.021 68.068.057a1.114 1.114 0 011 .939c.075.312.108 51.583.11 53.418" fill="#022d52"/><path d="M24.72 33.054c1.051 0 2.1-.015 3.153.007.43.009.587-.039.437-.541-.5-1.668-.939-3.353-1.4-5.031q-1-3.613-2.01-7.226c-.036-.128-.057-.262-.2-.315-.034.106-.071.211-.1.318q-1.723 6.158-3.452 12.315c-.107.38-.051.49.363.48 1.073-.027 2.146-.009 3.22-.009m19.962 20.364c-1.766.01-3.532.026-5.3.03q-3.589.008-7.178-.006c-.2 0-.569.16-.542-.258.022-.347-.248-.789.363-.991 1.371-.452 1.36-.479.97-1.84-.64-2.232-1.292-4.46-1.9-6.7-.119-.437-.3-.544-.73-.543q-5.6.024-11.2 0a.628.628 0 00-.734.543 553.362 553.362 0 01-2.367 7.75c-.124.4-.135.664.345.788.607.157.291.665.315 1.01.029.415-.352.238-.549.238q-6.272.016-12.545 0c-.186 0-.528.15-.519-.209.009-.34-.263-.845.24-1 1.016-.309 1.35-1.057 1.636-1.989 3.191-10.416 6.44-20.814 9.617-31.234a59.46 59.46 0 012.12-6.765 17.426 17.426 0 015.115-7.02 9.133 9.133 0 014.618-1.806c1.064-.131 2.136-.2 3.2-.291 1.752 6.353 3.327 12.748 4.579 19.219 1.111 5.743 2.074 11.517 3.421 17.213a47.729 47.729 0 003.319 10.1 6.712 6.712 0 003.705 3.754" fill="#022d52"/><path d="M44.683 53.418a6.714 6.714 0 01-3.705-3.754 47.739 47.739 0 01-3.319-10.1c-1.347-5.7-2.31-11.469-3.421-17.213-1.252-6.471-2.828-12.866-4.579-19.219.863-.02 16.065-.009 23.522-.02 0 .8-.287 7.974-.266 8.495q-6.031 2.964-12.065 5.921c-.28.136-.207.249-.1.448.284.531.572 1.062.809 1.614.168.389.35.464.758.31 1.688-.636 3.392-1.232 5.09-1.843.678-.244.68-.244.814.482 1.051 5.68 2.021 11.376 3.23 17.027.109.508-.038.646-.528.71-1.88.244-3.754.539-5.633.8-.332.045-.42.122-.278.453.5 1.148.825 2.356 1.219 3.541.115.346.247.574.662.618 1.069.208 1.092.232 1.644.3a20.026 20.026 0 004.394.184c.595-.105 7.334-2.419 9.445-5.209.572-.756.908-1.635 1.4-2.428.019 3.755.015 13.211-.019 14.251a7.764 7.764 0 01-3.2 4.041 4.824 4.824 0 01-2.339.754c-3.832.016-9.454-.1-13.535-.156" fill="#ac0101"/><path d="M52.915 11.603c-.02-1.152-.02-6.43-.02-8.495 4.111-.039 8.649-.11 12.759-.144.156 0 .386-.1.441.162.06.285-.185.307-.366.378-1.582.62-1.94 1.141-1.94 2.87v27.549c0 .2-.006.4-.009.6-.495.793-.83 1.672-1.4 2.428a12.028 12.028 0 01-7.99 4.989c-.37.064-.287.057-1.455.22V12.202c0-.2-.01-.4-.016-.6m5.299 41.972a4.822 4.822 0 002.339-.754 7.765 7.765 0 003.2-4.041c.01.312.022.624.029.937a2.357 2.357 0 001.8 2.577.959.959 0 01.506 1.215.248.248 0 01-.26.156c-.112 0-7.6-.074-7.615-.09" fill="#022d52"/></svg>