<svg xmlns="http://www.w3.org/2000/svg" width="128" height="128"><g data-name="Grupo 111"><g transform="translate(9)" fill="#fff"><path data-name="Trazado 73" d="M32.5 67.998a10 10 0 10-10-10 10.009 10.009 0 0010 10zm0-15a5 5 0 11-5 5 5 5 0 015-4.995z"/><path data-name="Trazado 74" d="M77.5 48.003a10 10 0 1010 10 10.009 10.009 0 00-10-10zm0 15a5 5 0 115-5 5 5 0 01-5 4.995z"/><path data-name="Trazado 75" d="M17.5 113h6.276a40.414 40.414 0 0011.851 10H10a2.5 2.5 0 000 5h90a2.5 2.5 0 000-5H74.373a40.414 40.414 0 0011.851-10H92.5A17.5 17.5 0 0095 78.182v-2.347a24.953 24.953 0 000-35.668V2.5A2.5 2.5 0 0092.5 0H66.25a2.5 2.5 0 100 5H90v2.514a53.7 53.7 0 00-35 14.029A53.721 53.721 0 0020 7.514V5h23.75a2.5 2.5 0 000-5H17.5A2.5 2.5 0 0015 2.5V10a2.5 2.5 0 002.5 2.5h1.287A48.717 48.717 0 0130 13.812v19.313a24.985 24.985 0 00-15 42.708v2.348A17.5 17.5 0 0017.5 113zM55 123a34.972 34.972 0 01-35-35v-8.364a24.923 24.923 0 0022.943 1.073l10.4 9.167a2.5 2.5 0 003.305 0l10.4-9.167A24.929 24.929 0 0090 79.637V88a34.971 34.971 0 01-35 35zm-7.543-44.978A25.07 25.07 0 0055 68.876a25.07 25.07 0 007.543 9.146L55 84.668zM105 95.5A12.514 12.514 0 0192.5 108h-2.848A39.644 39.644 0 0095 88v-4.748A12.521 12.521 0 01105 95.5zM97.5 58a20 20 0 01-40 0V44.8l20.38-6.793A20.027 20.027 0 0197.5 58zM90 36.365a24.894 24.894 0 00-10-3.235V13.812a48.725 48.725 0 0110-1.291zm-36.768-9.6a2.5 2.5 0 003.535 0A48.813 48.813 0 0175 15.281V33.7l-20 6.665L35 33.7V15.283a48.425 48.425 0 0118.232 11.485zM12.5 58a20.019 20.019 0 0119.623-19.99L52.5 44.8V58a20 20 0 01-40 0zM15 83.252V88a39.646 39.646 0 005.347 20H17.5A12.5 12.5 0 0115 83.252z"/><circle data-name="Elipse 1" cx="2.5" cy="2.5" r="2.5" transform="translate(52.5)"/></g><path data-name="Rectángulo 32" fill="none" d="M0 0h128v128H0z"/></g></svg>