<svg xmlns="http://www.w3.org/2000/svg" width="48" height="48"><path d="M38.167 28.041a4.369 4.369 0 00-3.168-1.453 4.518 4.518 0 00-3.206 1.444l-2.963 2.956c-.244-.131-.488-.253-.722-.375-.337-.169-.656-.328-.928-.5a32.2 32.2 0 01-7.716-7.031 19 19 0 01-2.531-3.994c.769-.7 1.481-1.434 2.175-2.138.263-.263.525-.534.788-.8a4.3 4.3 0 000-6.487l-2.559-2.559c-.291-.291-.591-.591-.872-.891a44.684 44.684 0 00-1.762-1.744 4.438 4.438 0 00-3.141-1.378 4.592 4.592 0 00-3.187 1.378l-.025.019-3.183 3.219a6.859 6.859 0 00-2.034 4.359 16.434 16.434 0 001.2 6.956 40.366 40.366 0 007.172 11.966 44.118 44.118 0 0014.691 11.5 22.889 22.889 0 008.25 2.438c.2.009.4.019.591.019a7.064 7.064 0 005.413-2.326c.009-.019.028-.028.037-.047a21.314 21.314 0 011.641-1.7c.4-.384.816-.787 1.219-1.209a4.677 4.677 0 001.416-3.244 4.506 4.506 0 00-1.444-3.216zm3.356 9.872c-.009 0-.009.009 0 0-.366.394-.741.75-1.144 1.144a24.649 24.649 0 00-1.809 1.875 4.52 4.52 0 01-3.52 1.49c-.141 0-.291 0-.431-.009a20.334 20.334 0 01-7.312-2.194 41.644 41.644 0 01-13.843-10.837 38.061 38.061 0 01-6.75-11.241 13.386 13.386 0 01-1.05-5.869 4.3 4.3 0 011.294-2.784l3.2-3.2a2.131 2.131 0 011.425-.666 2.005 2.005 0 011.369.656l.028.028a46.713 46.713 0 011.688 1.678c.291.3.591.6.891.909l2.559 2.559a1.789 1.789 0 010 2.906c-.272.272-.534.544-.806.806a48.515 48.515 0 01-2.353 2.287c-.019.019-.038.028-.047.047a1.912 1.912 0 00-.487 2.128l.028.084a20.548 20.548 0 003.028 4.941l.009.009a34.41 34.41 0 008.325 7.575 12.8 12.8 0 001.153.628c.337.169.656.328.928.5.037.019.075.047.112.066a2.032 2.032 0 00.928.234 2 2 0 001.425-.647l3.206-3.206a2.121 2.121 0 011.416-.7 1.909 1.909 0 011.35.684l.019.019 5.166 5.166a1.854 1.854 0 01.006 2.934z" fill="#ac0101"/><path fill="none" d="M0 0h48v48H0z"/></svg>