<svg xmlns="http://www.w3.org/2000/svg" width="128" height="128"><g data-name="Grupo 98"><g data-name="Grupo 99"><g data-name="Grupo 98"><path data-name="Trazado 67" d="M88.75 0H39a25.5 25.5 0 00-2.5 50.879v8.871a2.5 2.5 0 004.268 1.768L51.285 51h25.429l10.518 10.518A2.5 2.5 0 0091.5 59.75v-8.9A25.5 25.5 0 0088.75 0zm.224 46a2.5 2.5 0 00-2.474 2.5v5.218l-6.982-6.982A2.5 2.5 0 0077.75 46h-27.5a2.5 2.5 0 00-1.768.732L41.5 53.715V48.5A2.5 2.5 0 0039 46a20.5 20.5 0 010-41h49.75a20.5 20.5 0 01.224 41z" fill="#fff"/></g></g><g data-name="Grupo 101"><g data-name="Grupo 100"><path data-name="Trazado 68" d="M81.018 13.482a2.5 2.5 0 00-3.535 0l-1.805 1.805a15.455 15.455 0 102.706 4.365l2.635-2.635a2.5 2.5 0 00-.001-3.535zM64.032 36a10.5 10.5 0 118.1-17.17l-6.01 6.01-2.607-2.607a2.5 2.5 0 00-3.536 3.536l4.375 4.375a2.5 2.5 0 003.536 0l6.475-6.475A10.486 10.486 0 0164.032 36z" fill="#fff"/></g></g><g data-name="Grupo 103"><g data-name="Grupo 102"><path data-name="Trazado 69" d="M35.488 84.516a12.845 12.845 0 002.917-8.161v-4.429a12.905 12.905 0 10-25.81 0v4.429a12.845 12.845 0 002.917 8.161A18.6 18.6 0 000 102.832v22.669a2.5 2.5 0 002.5 2.5h46a2.5 2.5 0 002.5-2.5v-22.669a18.6 18.6 0 00-15.512-18.316zM17.6 71.925a7.905 7.905 0 0115.81 0v4.43a7.905 7.905 0 11-15.81 0zM46 123.001H5v-20.169a13.588 13.588 0 0113.573-13.573H23v6.308a2.5 2.5 0 005 0v-6.308h4.427A13.588 13.588 0 0146 102.832z" fill="#fff"/></g></g><g data-name="Grupo 105"><g data-name="Grupo 104"><path data-name="Trazado 70" d="M112.488 84.516a12.844 12.844 0 002.917-8.161v-4.429a12.905 12.905 0 00-25.81 0v4.429a12.844 12.844 0 002.917 8.161A18.6 18.6 0 0077 102.832v22.669a2.5 2.5 0 002.5 2.5h46a2.5 2.5 0 002.5-2.5v-22.669a18.6 18.6 0 00-15.512-18.316zM94.6 71.925a7.905 7.905 0 0115.81 0v4.43a7.905 7.905 0 11-15.81 0zm28.4 51.076H82v-20.169a13.588 13.588 0 0113.573-13.573H100v6.308a2.5 2.5 0 005 0v-6.308h4.427A13.588 13.588 0 01123 102.832z" fill="#fff"/></g></g><g data-name="Grupo 107"><g data-name="Grupo 106"><path data-name="Trazado 71" d="M104.268 102.86a2.5 2.5 0 10.732 1.767 2.516 2.516 0 00-.732-1.767z" fill="#fff"/></g></g><g data-name="Grupo 109"><g data-name="Grupo 108"><path data-name="Trazado 72" d="M27.268 102.86a2.5 2.5 0 10.732 1.767 2.516 2.516 0 00-.732-1.767z" fill="#fff"/></g></g><path data-name="Rectángulo 30" fill="none" d="M0 0h128v128H0z"/></g></svg>