<svg xmlns="http://www.w3.org/2000/svg" width="128" height="128"><g data-name="Grupo 110"><path d="M44.332 45.613a20.726 20.726 0 0021.185 0c7.772-4.617 11.987-13.751 11.563-25.059a20.1 20.1 0 00-9.185-16.655 3.024 3.024 0 00-.579-.369A24.849 24.849 0 0058.912.325a25.524 25.524 0 00-3.658-.326 25.2 25.2 0 00-3.4.168c-9.36 1.422-18.623 8.018-19.085 20.388-.423 11.308 3.792 20.444 11.563 25.058zM38.86 20.782c.366-9.8 8.314-14.479 16.064-14.792a19.639 19.639 0 017.449 1.76c-2.36 6.155-8.522 8.737-13.874 9.067a3.048 3.048 0 10.375 6.084c8.452-.52 15.294-4.876 18.527-11.476a14.5 14.5 0 013.587 9.356c.337 9.008-2.792 16.148-8.585 19.59a14.634 14.634 0 01-14.958 0c-5.793-3.44-8.922-10.581-8.585-19.589zm12.39 40.38c-9.4 1.246-15.875 6.643-17.324 14.463l-6.514 35.147h20.692a3.05 3.05 0 010 6.1H23.746a3.018 3.018 0 01-2.343-1.068 2.981 2.981 0 01-.654-2.473l7.183-38.78c1.924-10.392 10.552-17.83 22.517-19.416a33.269 33.269 0 0117.063 2.178 23.776 23.776 0 0112.566 11.549 3.05 3.05 0 01-5.5 2.634c-4.149-8.664-15.003-11.437-23.328-10.334zm5.122 17.107a3.048 3.048 0 013.048-3.048h5.945a3.05 3.05 0 110 6.1H59.42a3.048 3.048 0 01-3.048-3.052zm43.67 13.913l-8.145.016-2.49-7.711v-.006l-.007-.023a7.444 7.444 0 00-14.173 0l-2.5 7.742-7.735-.015a7.451 7.451 0 00-4.788 13.475l6.593 4.772s-2.6 7.972-2.623 8.091a7.464 7.464 0 001.163 6.333 7.438 7.438 0 0010.392 1.633l6.583-4.8 6.234 4.547a7.405 7.405 0 004.712 1.7 7.5 7.5 0 002.32-.37 7.45 7.45 0 004.78-9.393l-2.531-7.737 6.595-4.772a3.028 3.028 0 00.269-.219 7.44 7.44 0 00-4.647-13.256zm.792 8.532q-.1.076-.2.16l-8.183 5.92a3.049 3.049 0 00-1.11 3.417l3.221 9.847a1.354 1.354 0 01-2.167 1.447c-.057-.049-.116-.1-.177-.14l-8.11-5.916a3.048 3.048 0 00-3.593 0l-8.377 6.111a1.341 1.341 0 01-2.063-1.5c.028-.085.051-.172.071-.258l3.136-9.588a3.048 3.048 0 00-1.11-3.417l-8.393-6.074a1.356 1.356 0 01.9-2.449c.07.005.141 0 .212 0l10.051.008h.006a3.038 3.038 0 002.9-2.1l3.184-9.858a1.33 1.33 0 01.667-.783 1.35 1.35 0 011.9.783l.009.029 3.177 9.829a3.038 3.038 0 002.9 2.1h.006l10.363-.009a1.352 1.352 0 01.785 2.448z" fill="#fff"/><path data-name="Rectángulo 31" fill="none" d="M0 0h128v128H0z"/></g></svg>