<svg xmlns="http://www.w3.org/2000/svg" width="64.125" height="64"><g data-name="Grupo 42"><path data-name="Rectángulo 10" fill="none" d="M.125 0h64v64h-64z"/><g data-name="Grupo 37"><g data-name="Grupo 36"><path data-name="Trazado 43" d="M63.63 44.425l-3.051-3.026a1.25 1.25 0 10-1.761 1.775l3.051 3.026a1.25 1.25 0 001.761-1.775z" fill="#2bd480"/></g></g><g data-name="Grupo 39"><g data-name="Grupo 38"><path data-name="Trazado 44" d="M57.47 38.302a1.25 1.25 0 00-1.768 0 1.25 1.25 0 101.77 0z" fill="#2bd480"/></g></g><g data-name="Grupo 41"><g data-name="Grupo 40"><path data-name="Trazado 45" d="M46.811 44.067L58.94 31.939a4.708 4.708 0 00-2.272-7.92 4.713 4.713 0 00-3.473-6.628 4.7 4.7 0 00-3.669-6.115 4.714 4.714 0 00-6.724-5.62l-.121-.13a8.343 8.343 0 00-6.088-2.651h-9.818a1.25 1.25 0 00-1.25 1.25v1.639a5.68 5.68 0 00.323 1.9 4.712 4.712 0 00-6.28 5.832 4.711 4.711 0 00-3.675 6.116 4.711 4.711 0 00-3.47 6.625 4.712 4.712 0 00-2.273 7.923l2.494 2.494L.366 48.929a1.25 1.25 0 101.768 1.768l12.4-12.4a4.709 4.709 0 007.03-4.284h.19a4.707 4.707 0 004.712-4.7v-.19h.188a4.707 4.707 0 004.706-4.71v-.19h.188a4.709 4.709 0 003.644-7.7l8.3-8.3a2.211 2.211 0 113.126 3.126l-1.228 1.234-4.44 4.44a1.25 1.25 0 101.768 1.768l4.44-4.44a2.211 2.211 0 113.127 3.127l-1.224 1.224-3.216 3.211a1.25 1.25 0 101.768 1.768l3.216-3.216a2.211 2.211 0 113.126 3.126l-1.68 1.68-1.536 1.542a1.25 1.25 0 101.768 1.768l1.537-1.537a2.211 2.211 0 013.125 3.128L45.042 42.3a16.937 16.937 0 01-11.4 4.965 1.25 1.25 0 00-.84.367L21.6 58.877a1.25 1.25 0 101.771 1.765l8.241-8.271a11.621 11.621 0 007.058 1.816l6.45 6.45a1.25 1.25 0 101.768-1.768l-6.857-6.856a1.251 1.251 0 00-.986-.362l-.4.033a9.126 9.126 0 01-5.217-1.136l.8-.806a19.426 19.426 0 0012.583-5.675zm-28.388-8.3a2.211 2.211 0 01-3.127 0l-3.378-3.378a2.211 2.211 0 113.127-3.127l3.378 3.378a2.214 2.214 0 010 3.126zm4.895-4.895a2.214 2.214 0 01-3.127 0l-3.378-3.379-1.68-1.68a2.211 2.211 0 113.127-3.127l5.058 5.058a2.211 2.211 0 010 3.127zm4.895-4.895a2.214 2.214 0 01-3.127 0L18.8 19.695a2.211 2.211 0 013.126-3.127l2.863 2.863 3.42 3.419a2.211 2.211 0 010 3.127zm4.895-4.895a2.213 2.213 0 01-3.127 0L23.7 14.8l-1.222-1.222A2.211 2.211 0 0125.6 10.45l7.505 7.505a2.211 2.211 0 010 3.127zm.329-6.334L30 11.313a5.721 5.721 0 001.2.127h.028l3.431-.016a1.25 1.25 0 00-.006-2.5h-.006l-3.431.016H31.2a3.175 3.175 0 01-3.175-3.176v-.389h8.567a5.835 5.835 0 014.258 1.854l.051.055z" fill="#2bd480"/></g></g></g></svg>