<svg xmlns="http://www.w3.org/2000/svg" width="64" height="64"><g data-name="Grupo 34"><g fill="#eb5656"><path data-name="Trazado 22" d="M63 33v-8.024a4.969 4.969 0 00-3.563-4.789L53 18.256v-1.519A6.992 6.992 0 0056 11V8a7 7 0 00-14 0v3a6.99 6.99 0 003 5.736v1.519l-5.673 1.7a11.557 11.557 0 00-15.241-.175L19 18.256v-1.519A6.992 6.992 0 0022 11V8A7 7 0 008 8v3a6.99 6.99 0 003 5.736v1.519l-6.437 1.931A4.971 4.971 0 001 24.976V33h2v-8.024A2.98 2.98 0 015.138 22.1l6.439-1.932A4.349 4.349 0 0015 22a4.349 4.349 0 003.423-1.829l4.1 1.23a11.542 11.542 0 00-2.432 5.81A6.991 6.991 0 008 32v3a6.99 6.99 0 003 5.736v1.519l-6.437 1.931A4.971 4.971 0 001 48.976V58h12a1 1 0 011 1v4h36v-4a1 1 0 011-1h12v-9.024a4.969 4.969 0 00-3.563-4.789L53 42.256v-1.519A6.992 6.992 0 0056 35v-3a6.994 6.994 0 00-12-4.89v-.948a5.377 5.377 0 00-2.748-4.693l4.325-1.3a4.118 4.118 0 006.846 0l6.44 1.932A2.98 2.98 0 0161 24.976V33zM15 3a5.006 5.006 0 015 5h-4.586a2.431 2.431 0 01-1.707-.707L13 6.586l-.707.707A2.431 2.431 0 0110.586 8H10a5.006 5.006 0 015-5zm-5 8v-1h.586A4.379 4.379 0 0013 9.283a4.379 4.379 0 002.414.717H20v1a5 5 0 01-10 0zm5 9a2.559 2.559 0 01-2-1.275v-1.019a6.94 6.94 0 004 0v1.019A2.555 2.555 0 0115 20zm27.488 17.552A7.03 7.03 0 0045 40.737v1.519l-6.436 1.931a4.91 4.91 0 00-.619.236L37 44.205v-1.97a8.042 8.042 0 002.428-3.28 4.98 4.98 0 003.06-1.4zM32 44a7.945 7.945 0 003-.589V44.5l-3 2.25-3-2.25v-1.089A7.945 7.945 0 0032 44zm-4.228 2.079l2.438 1.829-2.508 1.5-.634-3.171zM30.895 54H33.1l.778 7h-3.761zm2.384-2H30.72l-.574-1.722L32 49.166l1.853 1.112zm.511-4.092l2.438-1.829.7.162-.628 3.171zm7.43-11.89a3 3 0 01-1.263.808A8.11 8.11 0 0040 36v-4.785a3.019 3.019 0 011.985 2.485 2.983 2.983 0 01-.765 2.317zM38 36a6 6 0 01-12 0v-5h3.4a12.861 12.861 0 006.2-1.583L36.382 31H38zm-13.957.826a2.957 2.957 0 01-.043-5.61V36a8.11 8.11 0 00.043.826zm.529 2.129A8.025 8.025 0 0027 42.235v1.97l-.945.218a5.175 5.175 0 00-.618-.236L19 42.256v-1.519a7.037 7.037 0 002.512-3.185 4.98 4.98 0 003.06 1.4zM15 27a5.006 5.006 0 015 5h-.586a2.431 2.431 0 01-1.707-.707L17 30.586l-.707.707a2.431 2.431 0 01-1.707.707H10a5.006 5.006 0 015-5zm-5 8v-1h4.586A4.379 4.379 0 0017 33.283a4.379 4.379 0 002.414.717H20v1a5 5 0 01-10 0zm5 7a6.958 6.958 0 002-.295v1.019A2.555 2.555 0 0115 44a2.559 2.559 0 01-2-1.275v-1.019A6.991 6.991 0 0015 42zm-2 14H9v-7H7v7H3v-7.024A2.98 2.98 0 015.138 46.1l6.439-1.932A4.349 4.349 0 0015 46a4.349 4.349 0 003.423-1.829l3.792 1.138-2.789.643A6.969 6.969 0 0014 52.773V54h2v-1.227a4.979 4.979 0 013.876-4.873l5.242-1.21 1.179 5.9 2.092-1.255.592 1.776L28.1 61H23v-8h-2v8h-5v-2a3 3 0 00-3-3zm45.862-9.9A2.98 2.98 0 0161 48.976V56h-4v-7h-2v7h-4a3 3 0 00-3 3v2h-5v-8h-2v8h-5.1l-.877-7.892.592-1.776 2.085 1.255 1.179-5.9 5.243 1.21A4.979 4.979 0 0148 52.773V54h2v-1.227a6.969 6.969 0 00-5.426-6.821l-2.789-.643 3.792-1.138a4.117 4.117 0 006.846 0zM51 42.725a2.206 2.206 0 01-4 0v-1.02a6.929 6.929 0 004 0zM49 40a5.006 5.006 0 01-5-5v-1h.586A4.379 4.379 0 0047 33.283a4.379 4.379 0 002.414.717H54v1a5.006 5.006 0 01-5 5zm0-13a5.006 5.006 0 015 5h-4.586a2.431 2.431 0 01-1.707-.707L47 30.586l-.707.707a2.431 2.431 0 01-1.707.707H44a5.006 5.006 0 015-5zm-7 3.085A5.253 5.253 0 0038.828 29h-1.21l-1.23-2.46-.942.628A10.872 10.872 0 0129.4 29h-4.228A5.253 5.253 0 0022 30.085v-1.479a9.607 9.607 0 0116.4-6.793l1.061 1.061.224.075A3.383 3.383 0 0142 26.162zM49 3a5.006 5.006 0 015 5h-.586a2.431 2.431 0 01-1.707-.707L51 6.586l-.707.707A2.431 2.431 0 0148.586 8H44a5.006 5.006 0 015-5zm-5 8v-1h4.586A4.379 4.379 0 0051 9.283a4.379 4.379 0 002.414.717H54v1a5 5 0 01-10 0zm5 9a2.557 2.557 0 01-2-1.275v-1.02a6.929 6.929 0 004 0v1.019A2.555 2.555 0 0149 20zm0 0"/><path data-name="Trazado 23" d="M24 1h2v2h-2zm0 0"/><path data-name="Trazado 24" d="M24 5h2v11h-2zm0 0"/><path data-name="Trazado 25" d="M38 1h2v2h-2zm0 0"/><path data-name="Trazado 26" d="M38 5h2v11h-2zm0 0"/><path data-name="Trazado 27" d="M28 5h2v7h-2zm0 0"/><path data-name="Trazado 28" d="M28 14h2v2h-2zm0 0"/><path data-name="Trazado 29" d="M34 5h2v7h-2zm0 0"/><path data-name="Trazado 30" d="M34 14h2v2h-2zm0 0"/></g><path data-name="Rectángulo 8" fill="none" d="M0 0h64v64H0z"/></g></svg>