<svg xmlns="http://www.w3.org/2000/svg" width="64" height="64"><g data-name="Grupo 35"><g data-name="Grupo 9"><g data-name="Grupo 8"><path data-name="Trazado 31" d="M52.809 24.443a1.25 1.25 0 00-1.768 1.768l.059.057a1.25 1.25 0 001.709-1.825z" fill="#ffba42"/></g></g><g data-name="Grupo 11"><g data-name="Grupo 10"><path data-name="Trazado 32" d="M50.27 22.39a19.572 19.572 0 00-2.183-1.288 16.764 16.764 0 00-12.713-1.212 1.25 1.25 0 10.741 2.387 14.311 14.311 0 0110.847 1.057 17.408 17.408 0 011.9 1.124 1.25 1.25 0 101.4-2.068z" fill="#ffba42"/></g></g><g data-name="Grupo 13"><g data-name="Grupo 12"><path data-name="Trazado 33" d="M61.642 38.566a16.083 16.083 0 01-1.376-3.444 11.821 11.821 0 00-1.506-11.237 23.419 23.419 0 00-18.246-9.681 22.368 22.368 0 00-10.305 2.5A10.7 10.7 0 1014.1 27.764a2.089 2.089 0 011.207 1.857v7.314a2.534 2.534 0 002.531 2.531h.425a22.262 22.262 0 007.539 14.1 4.929 4.929 0 01-.341 2.429c-.387 1.346-.981 2.84-1.5 4.159-.351.882-.653 1.645-.836 2.221A1.25 1.25 0 0024.314 64h17.843a2.029 2.029 0 001.9-1.513 12.219 12.219 0 00.517-1.892c.148-.675.5-2.258.843-2.449a.254.254 0 01.069 0 1.228 1.228 0 00.194.015c1.869 0 3.4.085 4.743.159 3.951.219 6.336.352 8.428-2.662 1.064-1.533.943-3.768.816-6.135a22.325 22.325 0 01-.013-3.525 10.907 10.907 0 011.107-.825c1.178-.809 2.291-1.573 2.291-2.735-.005-.879-.538-2.044-1.41-3.872zM15.406 25.632a8.2 8.2 0 118.555 0 4.549 4.549 0 00-2.191 2.678h-4.173a4.551 4.551 0 00-2.191-2.678zm6.154 5.178v1.828h-3.753V30.81zm-3.723 6.156a.036.036 0 01-.031-.031v-1.8h3.753v1.8a.036.036 0 01-.031.031zm41.5 6.15c-1.076.739-2.005 1.377-2.142 2.342a22.252 22.252 0 00-.033 4.2c.095 1.756.2 3.746-.373 4.574-1.244 1.792-2.319 1.809-6.236 1.591a84.13 84.13 0 00-4.8-.163 2.665 2.665 0 00-2.79 1.654 11.614 11.614 0 00-.842 2.738 13.284 13.284 0 01-.371 1.443H26.114l.169-.426c1.8-4.534 2.941-7.86 1.205-9.36a19.782 19.782 0 01-6.7-12.247h.744a2.534 2.534 0 002.531-2.531v-7.308a2.09 2.09 0 011.207-1.859 10.628 10.628 0 005.083-8.275 19.86 19.86 0 0110.161-2.785c5.956 0 12.906 3.684 16.167 8.568a9.382 9.382 0 011.241 8.977c-.491 1.181.237 2.819 1.464 5.393a22.557 22.557 0 011.124 2.6 11.811 11.811 0 01-1.169.874z" fill="#ffba42"/></g></g><g data-name="Grupo 15"><g data-name="Grupo 14"><path data-name="Trazado 34" d="M25.814 16.867a5 5 0 00-2.654-3.169 1.25 1.25 0 00-1.146 2.222 2.506 2.506 0 011.386 1.6 3.79 3.79 0 01-.347 2.583 1.25 1.25 0 102.108 1.344 6.266 6.266 0 00.653-4.58z" fill="#ffba42"/></g></g><g data-name="Grupo 17"><g data-name="Grupo 16"><path data-name="Trazado 35" d="M19.683 0a1.25 1.25 0 00-1.25 1.25v3.563a1.25 1.25 0 102.5 0V1.25A1.25 1.25 0 0019.683 0z" fill="#ffba42"/></g></g><g data-name="Grupo 19"><g data-name="Grupo 18"><path data-name="Trazado 36" d="M5.813 17.433H2.25a1.25 1.25 0 100 2.5h3.564a1.25 1.25 0 000-2.5z" fill="#ffba42"/></g></g><g data-name="Grupo 21"><g data-name="Grupo 20"><path data-name="Trazado 37" d="M13.83 6.046l-1.781-3.085a1.25 1.25 0 10-2.165 1.25l1.781 3.085a1.25 1.25 0 002.165-1.25z" fill="#ffba42"/></g></g><g data-name="Grupo 23"><g data-name="Grupo 22"><path data-name="Trazado 38" d="M8.296 10.665L5.21 8.882a1.25 1.25 0 00-1.25 2.165l3.085 1.781a1.25 1.25 0 001.25-2.165z" fill="#ffba42"/></g></g><g data-name="Grupo 25"><g data-name="Grupo 24"><path data-name="Trazado 39" d="M35.864 9.341a1.25 1.25 0 00-1.707-.457l-3.085 1.781a1.25 1.25 0 101.25 2.165l3.085-1.781a1.25 1.25 0 00.457-1.708z" fill="#ffba42"/></g></g><g data-name="Grupo 27"><g data-name="Grupo 26"><path data-name="Trazado 40" d="M8.754 24.993a1.25 1.25 0 00-1.707-.458l-3.086 1.781a1.25 1.25 0 101.25 2.165L8.297 26.7a1.25 1.25 0 00.457-1.707z" fill="#ffba42"/></g></g><g data-name="Grupo 29"><g data-name="Grupo 28"><path data-name="Trazado 41" d="M13.115 30.058a1.25 1.25 0 00-1.707.458l-1.524 2.64a1.25 1.25 0 102.165 1.25l1.522-2.642a1.25 1.25 0 00-.456-1.706z" fill="#ffba42"/></g></g><g data-name="Grupo 31"><g data-name="Grupo 30"><path data-name="Trazado 42" d="M29.024 2.503a1.25 1.25 0 00-1.708.457l-1.781 3.085a1.25 1.25 0 102.165 1.25l1.781-3.085a1.25 1.25 0 00-.457-1.707z" fill="#ffba42"/></g></g><path data-name="Rectángulo 9" fill="none" d="M0 0h64v64H0z"/></g></svg>