<svg xmlns="http://www.w3.org/2000/svg" width="128" height="128"><g data-name="Grupo 76"><path data-name="Rectángulo 29" fill="none" d="M0 0h128v128H0z"/><g data-name="Grupo 77"><g data-name="Grupo 76"><path data-name="Trazado 56" d="M115.5 11h-11.917V7.5a7.5 7.5 0 00-15 0V11h-42V7.5a7.5 7.5 0 00-15 0v3.592a2.5 2.5 0 00-.666-.092h-9.961a12.514 12.514 0 00-12.5 12.5v42.583a2.5 2.5 0 005 0V36.75h90.128a2.5 2.5 0 000-5H13.456V23.5a7.509 7.509 0 017.5-7.5h9.961a2.5 2.5 0 00.667-.092v3.217a7.5 7.5 0 0015 0V16h42v3.125a7.5 7.5 0 0015 0V16H115.5a7.509 7.509 0 017.5 7.5v95a4.5 4.5 0 11-9 0v-6.467a2.5 2.5 0 00-2.5-2.5H82.417a2.5 2.5 0 000 5H109v3.967a9.444 9.444 0 001.136 4.5H9.5a4.505 4.505 0 01-4.5-4.5v-3.969h55.956a2.5 2.5 0 000-5H35.977a20.5 20.5 0 10-26.715 0H2.5a2.5 2.5 0 00-2.5 2.5v6.469a9.511 9.511 0 009.5 9.5h109a9.512 9.512 0 009.5-9.5v-95A12.514 12.514 0 00115.5 11zm-73.917 8.125a2.5 2.5 0 01-5 0V7.5a2.5 2.5 0 015 0zm57 0a2.5 2.5 0 01-5 0V7.5a2.5 2.5 0 015 0zM7.12 94a15.5 15.5 0 1115.5 15.5A15.518 15.518 0 017.12 94z" fill="#fff"/></g></g><g data-name="Grupo 79"><g data-name="Grupo 78"><path data-name="Trazado 57" d="M117.077 32.482a2.5 2.5 0 10.733 1.768 2.518 2.518 0 00-.733-1.768z" fill="#fff"/></g></g><g data-name="Grupo 81"><g data-name="Grupo 80"><path data-name="Trazado 58" d="M74.662 110.262a2.5 2.5 0 10.733 1.767 2.515 2.515 0 00-.733-1.767z" fill="#fff"/></g></g><g data-name="Grupo 83"><g data-name="Grupo 82"><path data-name="Trazado 59" d="M56.561 76a9.5 9.5 0 109.5 9.5 9.511 9.511 0 00-9.5-9.5zm0 14a4.5 4.5 0 114.5-4.5 4.505 4.505 0 01-4.5 4.5z" fill="#fff"/></g></g><g data-name="Grupo 85"><g data-name="Grupo 84"><path data-name="Trazado 60" d="M79.895 76a9.5 9.5 0 109.5 9.5 9.511 9.511 0 00-9.5-9.5zm0 14a4.5 4.5 0 114.5-4.5 4.505 4.505 0 01-4.5 4.5z" fill="#fff"/></g></g><g data-name="Grupo 87"><g data-name="Grupo 86"><path data-name="Trazado 61" d="M103.228 76a9.5 9.5 0 109.5 9.5 9.511 9.511 0 00-9.5-9.5zm0 14a4.5 4.5 0 114.5-4.5 4.505 4.505 0 01-4.5 4.5z" fill="#fff"/></g></g><g data-name="Grupo 89"><g data-name="Grupo 88"><path data-name="Trazado 62" d="M33.228 50a9.5 9.5 0 109.5 9.5 9.511 9.511 0 00-9.5-9.5zm0 14a4.5 4.5 0 114.5-4.5 4.505 4.505 0 01-4.5 4.5z" fill="#fff"/></g></g><g data-name="Grupo 91"><g data-name="Grupo 90"><path data-name="Trazado 63" d="M79.895 50a9.5 9.5 0 109.5 9.5 9.511 9.511 0 00-9.5-9.5zm0 14a4.5 4.5 0 114.5-4.5 4.505 4.505 0 01-4.5 4.5z" fill="#fff"/></g></g><g data-name="Grupo 93"><g data-name="Grupo 92"><path data-name="Trazado 64" d="M103.228 50a9.5 9.5 0 109.5 9.5 9.511 9.511 0 00-9.5-9.5zm0 14a4.5 4.5 0 114.5-4.5 4.505 4.505 0 01-4.5 4.5z" fill="#fff"/></g></g><g data-name="Grupo 95"><g data-name="Grupo 94"><path data-name="Trazado 65" d="M56.561 50a9.5 9.5 0 109.5 9.5 9.511 9.511 0 00-9.5-9.5zm0 14a4.5 4.5 0 114.5-4.5 4.505 4.505 0 01-4.5 4.5z" fill="#fff"/></g></g><g data-name="Grupo 97"><g data-name="Grupo 96"><path data-name="Trazado 66" d="M31.527 87.907a2.5 2.5 0 00-3.536 0l-8.142 8.142-2.782-2.782a2.5 2.5 0 10-3.536 3.536l4.55 4.55a2.5 2.5 0 003.535 0l9.91-9.909a2.5 2.5 0 00.001-3.537z" fill="#fff"/></g></g></g></svg>